M48
; DRILL file {KiCad 8.0.0} date 2024-03-11T00:59:36-0400
; FORMAT={-:-/ absolute / metric / decimal}
; #@! TF.CreationDate,2024-03-11T00:59:36-04:00
; #@! TF.GenerationSoftware,Kicad,Pcbnew,8.0.0
; #@! TF.FileFunction,NonPlated,1,2,NPTH
FMAT,2
METRIC
; #@! TA.AperFunction,NonPlated,NPTH,ComponentDrill
T1C1.500
; #@! TA.AperFunction,NonPlated,NPTH,ComponentDrill
T2C1.750
; #@! TA.AperFunction,NonPlated,NPTH,ComponentDrill
T3C1.800
; #@! TA.AperFunction,NonPlated,NPTH,ComponentDrill
T4C3.000
; #@! TA.AperFunction,NonPlated,NPTH,ComponentDrill
T5C3.250
; #@! TA.AperFunction,NonPlated,NPTH,ComponentDrill
T6C3.988
%
G90
G05
T1
X155.104Y-69.213
X159.954Y-69.213
T2
X38.108Y-73.733
X48.268Y-73.733
X57.158Y-73.733
X67.319Y-73.733
X76.209Y-92.782
X86.368Y-92.782
X104.466Y-130.882
X114.626Y-130.882
X127.174Y-97.594
X127.174Y-120.689
X137.334Y-97.594
X137.334Y-120.689
X178.081Y-88.106
X178.087Y-109.537
X188.241Y-88.106
X188.246Y-109.537
X199.518Y-83.344
X199.518Y-104.775
X209.678Y-83.344
X209.678Y-104.775
X220.929Y-104.775
X220.949Y-83.344
X231.089Y-104.775
X231.109Y-83.344
X242.38Y-88.106
X242.38Y-109.537
X252.54Y-88.106
X252.54Y-109.537
T3
X154.804Y-66.183
X160.254Y-66.183
T4
X39.378Y-71.192
X45.728Y-68.653
X58.428Y-71.192
X64.778Y-68.653
X77.478Y-90.242
X83.828Y-87.703
X105.736Y-128.343
X112.086Y-125.802
X128.444Y-95.054
X128.444Y-118.149
X134.794Y-92.514
X134.794Y-115.609
X179.351Y-85.566
X179.356Y-106.997
X185.701Y-83.026
X185.707Y-104.457
X200.788Y-80.804
X200.788Y-102.235
X207.138Y-78.264
X207.138Y-99.695
X222.199Y-102.235
X222.219Y-80.804
X228.549Y-99.695
X228.569Y-78.264
X243.65Y-85.566
X243.65Y-106.997
X250.0Y-83.026
X250.0Y-104.457
T5
X103.196Y-70.117
X115.896Y-70.117
X125.904Y-70.108
X138.604Y-70.108
T6
X43.188Y-73.733
X62.238Y-73.733
X81.288Y-92.782
X109.546Y-130.882
X132.254Y-97.594
X132.254Y-120.689
X183.161Y-88.106
X183.166Y-109.537
X204.598Y-83.344
X204.598Y-104.775
X226.009Y-104.775
X226.029Y-83.344
X247.46Y-88.106
X247.46Y-109.537
M30
