M48
; DRILL file {KiCad 8.0.0} date 2024-03-10T17:47:17-0400
; FORMAT={-:-/ absolute / inch / decimal}
; #@! TF.CreationDate,2024-03-10T17:47:17-04:00
; #@! TF.GenerationSoftware,Kicad,Pcbnew,8.0.0
; #@! TF.FileFunction,Plated,1,2,PTH
FMAT,2
INCH
; #@! TA.AperFunction,Plated,PTH,ViaDrill
T1C0.0157
; #@! TA.AperFunction,Plated,PTH,ComponentDrill
T2C0.0350
; #@! TA.AperFunction,Plated,PTH,ComponentDrill
T3C0.0394
; #@! TA.AperFunction,Plated,PTH,ComponentDrill
T4C0.0402
; #@! TA.AperFunction,Plated,PTH,ComponentDrill
T5C0.0618
%
G90
G05
T1
X1.5128Y-3.0904
X2.2578Y-2.5904
X3.0778Y-3.1654
X3.6553Y-3.4529
T2
X4.1727Y-2.8605
X4.2127Y-2.9306
X4.2527Y-2.8605
X4.2927Y-2.9306
X4.3327Y-2.8605
X4.3727Y-2.9306
X4.4127Y-2.8605
X4.4527Y-2.9306
X5.0667Y-2.8602
X5.1067Y-2.9302
X5.1467Y-2.8602
X5.1867Y-2.9302
X5.2267Y-2.8602
X5.2667Y-2.9302
X5.3067Y-2.8602
X5.3467Y-2.9302
T3
X4.1849Y-3.6493
X4.1849Y-3.8265
X4.1849Y-4.226
X4.1849Y-4.4032
X4.4408Y-3.6493
X4.4408Y-3.8265
X4.4408Y-4.226
X4.4408Y-4.4032
X5.7919Y-5.033
X5.7919Y-5.2102
X6.0478Y-5.033
X6.0478Y-5.2102
X6.3561Y-5.033
X6.3561Y-5.2102
X6.612Y-5.033
X6.612Y-5.2102
T4
X5.8519Y-2.6005
X5.8519Y-2.7005
X5.8519Y-2.8005
X5.8519Y-2.9005
X5.8519Y-3.0005
X5.8519Y-3.1005
X5.8519Y-3.2005
X5.8519Y-3.3005
X5.8519Y-3.4005
X5.8519Y-3.5005
X5.8519Y-3.6005
X5.8519Y-3.7005
X5.8519Y-3.8005
X5.8519Y-3.9005
X5.8519Y-4.0005
X5.8519Y-4.1005
X5.8519Y-4.2005
X5.8519Y-4.3005
X5.8519Y-4.4005
X5.8519Y-4.5005
X6.1019Y-4.4915
X6.2019Y-4.4915
X6.3019Y-4.4915
X6.5519Y-2.6005
X6.5519Y-2.7005
X6.5519Y-2.8005
X6.5519Y-2.9005
X6.5519Y-3.0005
X6.5519Y-3.1005
X6.5519Y-3.2005
X6.5519Y-3.3005
X6.5519Y-3.4005
X6.5519Y-3.5005
X6.5519Y-3.6005
X6.5519Y-3.7005
X6.5519Y-3.8005
X6.5519Y-3.9005
X6.5519Y-4.0005
X6.5519Y-4.1005
X6.5519Y-4.2005
X6.5519Y-4.3005
X6.5519Y-4.4005
X6.5519Y-4.5005
T5
X3.9928Y-2.8956
X4.6329Y-2.8956
X4.8868Y-2.8952
X5.5269Y-2.8952
M30
