%TF.GenerationSoftware,KiCad,Pcbnew,8.0.0*%
%TF.CreationDate,2024-03-11T00:59:23-04:00*%
%TF.ProjectId,my-split,6d792d73-706c-4697-942e-6b696361645f,rev?*%
%TF.SameCoordinates,Original*%
%TF.FileFunction,Legend,Top*%
%TF.FilePolarity,Positive*%
%FSLAX46Y46*%
G04 Gerber Fmt 4.6, Leading zero omitted, Abs format (unit mm)*
G04 Created by KiCad (PCBNEW 8.0.0) date 2024-03-11 00:59:23*
%MOMM*%
%LPD*%
G01*
G04 APERTURE LIST*
%ADD10C,0.150000*%
%ADD11C,0.120000*%
%ADD12C,1.750000*%
%ADD13C,3.000000*%
%ADD14C,3.987800*%
%ADD15C,2.300000*%
%ADD16C,1.500000*%
%ADD17R,1.500000X1.500000*%
%ADD18C,3.250000*%
%ADD19R,1.700000X1.700000*%
%ADD20C,1.700000*%
%ADD21O,1.800000X1.800000*%
%ADD22O,1.500000X1.500000*%
%ADD23O,1.700000X1.700000*%
%ADD24R,3.500000X1.700000*%
%ADD25R,1.700000X3.500000*%
G04 APERTURE END LIST*
D10*
X130251493Y-107835519D02*
X130441969Y-107835519D01*
X130441969Y-107835519D02*
X130537207Y-107883138D01*
X130537207Y-107883138D02*
X130632445Y-107978376D01*
X130632445Y-107978376D02*
X130680064Y-108168852D01*
X130680064Y-108168852D02*
X130680064Y-108502185D01*
X130680064Y-108502185D02*
X130632445Y-108692661D01*
X130632445Y-108692661D02*
X130537207Y-108787900D01*
X130537207Y-108787900D02*
X130441969Y-108835519D01*
X130441969Y-108835519D02*
X130251493Y-108835519D01*
X130251493Y-108835519D02*
X130156255Y-108787900D01*
X130156255Y-108787900D02*
X130061017Y-108692661D01*
X130061017Y-108692661D02*
X130013398Y-108502185D01*
X130013398Y-108502185D02*
X130013398Y-108168852D01*
X130013398Y-108168852D02*
X130061017Y-107978376D01*
X130061017Y-107978376D02*
X130156255Y-107883138D01*
X130156255Y-107883138D02*
X130251493Y-107835519D01*
X131108636Y-108168852D02*
X131108636Y-109168852D01*
X131108636Y-108216471D02*
X131203874Y-108168852D01*
X131203874Y-108168852D02*
X131394350Y-108168852D01*
X131394350Y-108168852D02*
X131489588Y-108216471D01*
X131489588Y-108216471D02*
X131537207Y-108264090D01*
X131537207Y-108264090D02*
X131584826Y-108359328D01*
X131584826Y-108359328D02*
X131584826Y-108645042D01*
X131584826Y-108645042D02*
X131537207Y-108740280D01*
X131537207Y-108740280D02*
X131489588Y-108787900D01*
X131489588Y-108787900D02*
X131394350Y-108835519D01*
X131394350Y-108835519D02*
X131203874Y-108835519D01*
X131203874Y-108835519D02*
X131108636Y-108787900D01*
X131870541Y-108168852D02*
X132251493Y-108168852D01*
X132013398Y-107835519D02*
X132013398Y-108692661D01*
X132013398Y-108692661D02*
X132061017Y-108787900D01*
X132061017Y-108787900D02*
X132156255Y-108835519D01*
X132156255Y-108835519D02*
X132251493Y-108835519D01*
X132584827Y-108835519D02*
X132584827Y-108168852D01*
X132584827Y-107835519D02*
X132537208Y-107883138D01*
X132537208Y-107883138D02*
X132584827Y-107930757D01*
X132584827Y-107930757D02*
X132632446Y-107883138D01*
X132632446Y-107883138D02*
X132584827Y-107835519D01*
X132584827Y-107835519D02*
X132584827Y-107930757D01*
X133203874Y-108835519D02*
X133108636Y-108787900D01*
X133108636Y-108787900D02*
X133061017Y-108740280D01*
X133061017Y-108740280D02*
X133013398Y-108645042D01*
X133013398Y-108645042D02*
X133013398Y-108359328D01*
X133013398Y-108359328D02*
X133061017Y-108264090D01*
X133061017Y-108264090D02*
X133108636Y-108216471D01*
X133108636Y-108216471D02*
X133203874Y-108168852D01*
X133203874Y-108168852D02*
X133346731Y-108168852D01*
X133346731Y-108168852D02*
X133441969Y-108216471D01*
X133441969Y-108216471D02*
X133489588Y-108264090D01*
X133489588Y-108264090D02*
X133537207Y-108359328D01*
X133537207Y-108359328D02*
X133537207Y-108645042D01*
X133537207Y-108645042D02*
X133489588Y-108740280D01*
X133489588Y-108740280D02*
X133441969Y-108787900D01*
X133441969Y-108787900D02*
X133346731Y-108835519D01*
X133346731Y-108835519D02*
X133203874Y-108835519D01*
X133965779Y-108168852D02*
X133965779Y-108835519D01*
X133965779Y-108264090D02*
X134013398Y-108216471D01*
X134013398Y-108216471D02*
X134108636Y-108168852D01*
X134108636Y-108168852D02*
X134251493Y-108168852D01*
X134251493Y-108168852D02*
X134346731Y-108216471D01*
X134346731Y-108216471D02*
X134394350Y-108311709D01*
X134394350Y-108311709D02*
X134394350Y-108835519D01*
X130299112Y-131902200D02*
X130441969Y-131949819D01*
X130441969Y-131949819D02*
X130680064Y-131949819D01*
X130680064Y-131949819D02*
X130775302Y-131902200D01*
X130775302Y-131902200D02*
X130822921Y-131854580D01*
X130822921Y-131854580D02*
X130870540Y-131759342D01*
X130870540Y-131759342D02*
X130870540Y-131664104D01*
X130870540Y-131664104D02*
X130822921Y-131568866D01*
X130822921Y-131568866D02*
X130775302Y-131521247D01*
X130775302Y-131521247D02*
X130680064Y-131473628D01*
X130680064Y-131473628D02*
X130489588Y-131426009D01*
X130489588Y-131426009D02*
X130394350Y-131378390D01*
X130394350Y-131378390D02*
X130346731Y-131330771D01*
X130346731Y-131330771D02*
X130299112Y-131235533D01*
X130299112Y-131235533D02*
X130299112Y-131140295D01*
X130299112Y-131140295D02*
X130346731Y-131045057D01*
X130346731Y-131045057D02*
X130394350Y-130997438D01*
X130394350Y-130997438D02*
X130489588Y-130949819D01*
X130489588Y-130949819D02*
X130727683Y-130949819D01*
X130727683Y-130949819D02*
X130870540Y-130997438D01*
X131299112Y-131949819D02*
X131299112Y-130949819D01*
X131727683Y-131949819D02*
X131727683Y-131426009D01*
X131727683Y-131426009D02*
X131680064Y-131330771D01*
X131680064Y-131330771D02*
X131584826Y-131283152D01*
X131584826Y-131283152D02*
X131441969Y-131283152D01*
X131441969Y-131283152D02*
X131346731Y-131330771D01*
X131346731Y-131330771D02*
X131299112Y-131378390D01*
X132632445Y-131949819D02*
X132632445Y-131426009D01*
X132632445Y-131426009D02*
X132584826Y-131330771D01*
X132584826Y-131330771D02*
X132489588Y-131283152D01*
X132489588Y-131283152D02*
X132299112Y-131283152D01*
X132299112Y-131283152D02*
X132203874Y-131330771D01*
X132632445Y-131902200D02*
X132537207Y-131949819D01*
X132537207Y-131949819D02*
X132299112Y-131949819D01*
X132299112Y-131949819D02*
X132203874Y-131902200D01*
X132203874Y-131902200D02*
X132156255Y-131806961D01*
X132156255Y-131806961D02*
X132156255Y-131711723D01*
X132156255Y-131711723D02*
X132203874Y-131616485D01*
X132203874Y-131616485D02*
X132299112Y-131568866D01*
X132299112Y-131568866D02*
X132537207Y-131568866D01*
X132537207Y-131568866D02*
X132632445Y-131521247D01*
X133108636Y-131949819D02*
X133108636Y-131283152D01*
X133108636Y-131473628D02*
X133156255Y-131378390D01*
X133156255Y-131378390D02*
X133203874Y-131330771D01*
X133203874Y-131330771D02*
X133299112Y-131283152D01*
X133299112Y-131283152D02*
X133394350Y-131283152D01*
X134108636Y-131902200D02*
X134013398Y-131949819D01*
X134013398Y-131949819D02*
X133822922Y-131949819D01*
X133822922Y-131949819D02*
X133727684Y-131902200D01*
X133727684Y-131902200D02*
X133680065Y-131806961D01*
X133680065Y-131806961D02*
X133680065Y-131426009D01*
X133680065Y-131426009D02*
X133727684Y-131330771D01*
X133727684Y-131330771D02*
X133822922Y-131283152D01*
X133822922Y-131283152D02*
X134013398Y-131283152D01*
X134013398Y-131283152D02*
X134108636Y-131330771D01*
X134108636Y-131330771D02*
X134156255Y-131426009D01*
X134156255Y-131426009D02*
X134156255Y-131521247D01*
X134156255Y-131521247D02*
X133680065Y-131616485D01*
X108760286Y-104745151D02*
X109331714Y-104745151D01*
X109046000Y-105745151D02*
X109046000Y-104745151D01*
X109665048Y-105745151D02*
X109665048Y-104745151D01*
X109665048Y-104745151D02*
X110046000Y-104745151D01*
X110046000Y-104745151D02*
X110141238Y-104792770D01*
X110141238Y-104792770D02*
X110188857Y-104840389D01*
X110188857Y-104840389D02*
X110236476Y-104935627D01*
X110236476Y-104935627D02*
X110236476Y-105078484D01*
X110236476Y-105078484D02*
X110188857Y-105173722D01*
X110188857Y-105173722D02*
X110141238Y-105221341D01*
X110141238Y-105221341D02*
X110046000Y-105268960D01*
X110046000Y-105268960D02*
X109665048Y-105268960D01*
X164527333Y-126244019D02*
X164194000Y-125767828D01*
X163955905Y-126244019D02*
X163955905Y-125244019D01*
X163955905Y-125244019D02*
X164336857Y-125244019D01*
X164336857Y-125244019D02*
X164432095Y-125291638D01*
X164432095Y-125291638D02*
X164479714Y-125339257D01*
X164479714Y-125339257D02*
X164527333Y-125434495D01*
X164527333Y-125434495D02*
X164527333Y-125577352D01*
X164527333Y-125577352D02*
X164479714Y-125672590D01*
X164479714Y-125672590D02*
X164432095Y-125720209D01*
X164432095Y-125720209D02*
X164336857Y-125767828D01*
X164336857Y-125767828D02*
X163955905Y-125767828D01*
X164860667Y-125244019D02*
X165479714Y-125244019D01*
X165479714Y-125244019D02*
X165146381Y-125624971D01*
X165146381Y-125624971D02*
X165289238Y-125624971D01*
X165289238Y-125624971D02*
X165384476Y-125672590D01*
X165384476Y-125672590D02*
X165432095Y-125720209D01*
X165432095Y-125720209D02*
X165479714Y-125815447D01*
X165479714Y-125815447D02*
X165479714Y-126053542D01*
X165479714Y-126053542D02*
X165432095Y-126148780D01*
X165432095Y-126148780D02*
X165384476Y-126196400D01*
X165384476Y-126196400D02*
X165289238Y-126244019D01*
X165289238Y-126244019D02*
X165003524Y-126244019D01*
X165003524Y-126244019D02*
X164908286Y-126196400D01*
X164908286Y-126196400D02*
X164860667Y-126148780D01*
X108807905Y-91096819D02*
X108807905Y-90096819D01*
X108807905Y-90096819D02*
X109188857Y-90096819D01*
X109188857Y-90096819D02*
X109284095Y-90144438D01*
X109284095Y-90144438D02*
X109331714Y-90192057D01*
X109331714Y-90192057D02*
X109379333Y-90287295D01*
X109379333Y-90287295D02*
X109379333Y-90430152D01*
X109379333Y-90430152D02*
X109331714Y-90525390D01*
X109331714Y-90525390D02*
X109284095Y-90573009D01*
X109284095Y-90573009D02*
X109188857Y-90620628D01*
X109188857Y-90620628D02*
X108807905Y-90620628D01*
X109760286Y-91049200D02*
X109903143Y-91096819D01*
X109903143Y-91096819D02*
X110141238Y-91096819D01*
X110141238Y-91096819D02*
X110236476Y-91049200D01*
X110236476Y-91049200D02*
X110284095Y-91001580D01*
X110284095Y-91001580D02*
X110331714Y-90906342D01*
X110331714Y-90906342D02*
X110331714Y-90811104D01*
X110331714Y-90811104D02*
X110284095Y-90715866D01*
X110284095Y-90715866D02*
X110236476Y-90668247D01*
X110236476Y-90668247D02*
X110141238Y-90620628D01*
X110141238Y-90620628D02*
X109950762Y-90573009D01*
X109950762Y-90573009D02*
X109855524Y-90525390D01*
X109855524Y-90525390D02*
X109807905Y-90477771D01*
X109807905Y-90477771D02*
X109760286Y-90382533D01*
X109760286Y-90382533D02*
X109760286Y-90287295D01*
X109760286Y-90287295D02*
X109807905Y-90192057D01*
X109807905Y-90192057D02*
X109855524Y-90144438D01*
X109855524Y-90144438D02*
X109950762Y-90096819D01*
X109950762Y-90096819D02*
X110188857Y-90096819D01*
X110188857Y-90096819D02*
X110331714Y-90144438D01*
X156767095Y-89638019D02*
X156767095Y-90447542D01*
X156767095Y-90447542D02*
X156814714Y-90542780D01*
X156814714Y-90542780D02*
X156862333Y-90590400D01*
X156862333Y-90590400D02*
X156957571Y-90638019D01*
X156957571Y-90638019D02*
X157148047Y-90638019D01*
X157148047Y-90638019D02*
X157243285Y-90590400D01*
X157243285Y-90590400D02*
X157290904Y-90542780D01*
X157290904Y-90542780D02*
X157338523Y-90447542D01*
X157338523Y-90447542D02*
X157338523Y-89638019D01*
X158338523Y-90638019D02*
X157767095Y-90638019D01*
X158052809Y-90638019D02*
X158052809Y-89638019D01*
X158052809Y-89638019D02*
X157957571Y-89780876D01*
X157957571Y-89780876D02*
X157862333Y-89876114D01*
X157862333Y-89876114D02*
X157767095Y-89923733D01*
X169626998Y-112164068D02*
X169546185Y-112191005D01*
X169546185Y-112191005D02*
X169465373Y-112271818D01*
X169465373Y-112271818D02*
X169411498Y-112379567D01*
X169411498Y-112379567D02*
X169411498Y-112487317D01*
X169411498Y-112487317D02*
X169438436Y-112568129D01*
X169438436Y-112568129D02*
X169519248Y-112702816D01*
X169519248Y-112702816D02*
X169600060Y-112783628D01*
X169600060Y-112783628D02*
X169734747Y-112864441D01*
X169734747Y-112864441D02*
X169815560Y-112891378D01*
X169815560Y-112891378D02*
X169923309Y-112891378D01*
X169923309Y-112891378D02*
X170031059Y-112837503D01*
X170031059Y-112837503D02*
X170084934Y-112783628D01*
X170084934Y-112783628D02*
X170138808Y-112675879D01*
X170138808Y-112675879D02*
X170138808Y-112622004D01*
X170138808Y-112622004D02*
X169950247Y-112433442D01*
X169950247Y-112433442D02*
X169842497Y-112541192D01*
X170435120Y-112433442D02*
X169869434Y-111867757D01*
X169869434Y-111867757D02*
X170084934Y-111652257D01*
X170084934Y-111652257D02*
X170165746Y-111625320D01*
X170165746Y-111625320D02*
X170219621Y-111625320D01*
X170219621Y-111625320D02*
X170300433Y-111652257D01*
X170300433Y-111652257D02*
X170381245Y-111733070D01*
X170381245Y-111733070D02*
X170408182Y-111813882D01*
X170408182Y-111813882D02*
X170408182Y-111867757D01*
X170408182Y-111867757D02*
X170381245Y-111948569D01*
X170381245Y-111948569D02*
X170165746Y-112164068D01*
X171297117Y-111571445D02*
X170973868Y-111894694D01*
X171135492Y-111733070D02*
X170569807Y-111167384D01*
X170569807Y-111167384D02*
X170596744Y-111302071D01*
X170596744Y-111302071D02*
X170596744Y-111409821D01*
X170596744Y-111409821D02*
X170569807Y-111490633D01*
X170919993Y-110817198D02*
X171297117Y-110440074D01*
X171297117Y-110440074D02*
X171620366Y-111248196D01*
X169615435Y-109381631D02*
X169534623Y-109408568D01*
X169534623Y-109408568D02*
X169453811Y-109489380D01*
X169453811Y-109489380D02*
X169399936Y-109597130D01*
X169399936Y-109597130D02*
X169399936Y-109704880D01*
X169399936Y-109704880D02*
X169426873Y-109785692D01*
X169426873Y-109785692D02*
X169507685Y-109920379D01*
X169507685Y-109920379D02*
X169588498Y-110001191D01*
X169588498Y-110001191D02*
X169723185Y-110082003D01*
X169723185Y-110082003D02*
X169803997Y-110108941D01*
X169803997Y-110108941D02*
X169911746Y-110108941D01*
X169911746Y-110108941D02*
X170019496Y-110055066D01*
X170019496Y-110055066D02*
X170073371Y-110001191D01*
X170073371Y-110001191D02*
X170127246Y-109893441D01*
X170127246Y-109893441D02*
X170127246Y-109839567D01*
X170127246Y-109839567D02*
X169938684Y-109651005D01*
X169938684Y-109651005D02*
X169830934Y-109758754D01*
X170423557Y-109651005D02*
X169857872Y-109085319D01*
X169857872Y-109085319D02*
X170746806Y-109327756D01*
X170746806Y-109327756D02*
X170181120Y-108762071D01*
X171016180Y-109058382D02*
X170450494Y-108492697D01*
X170450494Y-108492697D02*
X170585181Y-108358010D01*
X170585181Y-108358010D02*
X170692931Y-108304135D01*
X170692931Y-108304135D02*
X170800680Y-108304135D01*
X170800680Y-108304135D02*
X170881493Y-108331072D01*
X170881493Y-108331072D02*
X171016180Y-108411885D01*
X171016180Y-108411885D02*
X171096992Y-108492697D01*
X171096992Y-108492697D02*
X171177804Y-108627384D01*
X171177804Y-108627384D02*
X171204741Y-108708196D01*
X171204741Y-108708196D02*
X171204741Y-108815946D01*
X171204741Y-108815946D02*
X171150867Y-108923695D01*
X171150867Y-108923695D02*
X171016180Y-109058382D01*
X169626998Y-102004068D02*
X169546185Y-102031005D01*
X169546185Y-102031005D02*
X169465373Y-102111818D01*
X169465373Y-102111818D02*
X169411498Y-102219567D01*
X169411498Y-102219567D02*
X169411498Y-102327317D01*
X169411498Y-102327317D02*
X169438436Y-102408129D01*
X169438436Y-102408129D02*
X169519248Y-102542816D01*
X169519248Y-102542816D02*
X169600060Y-102623628D01*
X169600060Y-102623628D02*
X169734747Y-102704441D01*
X169734747Y-102704441D02*
X169815560Y-102731378D01*
X169815560Y-102731378D02*
X169923309Y-102731378D01*
X169923309Y-102731378D02*
X170031059Y-102677503D01*
X170031059Y-102677503D02*
X170084934Y-102623628D01*
X170084934Y-102623628D02*
X170138808Y-102515879D01*
X170138808Y-102515879D02*
X170138808Y-102462004D01*
X170138808Y-102462004D02*
X169950247Y-102273442D01*
X169950247Y-102273442D02*
X169842497Y-102381192D01*
X170435120Y-102273442D02*
X169869434Y-101707757D01*
X169869434Y-101707757D02*
X170084934Y-101492257D01*
X170084934Y-101492257D02*
X170165746Y-101465320D01*
X170165746Y-101465320D02*
X170219621Y-101465320D01*
X170219621Y-101465320D02*
X170300433Y-101492257D01*
X170300433Y-101492257D02*
X170381245Y-101573070D01*
X170381245Y-101573070D02*
X170408182Y-101653882D01*
X170408182Y-101653882D02*
X170408182Y-101707757D01*
X170408182Y-101707757D02*
X170381245Y-101788569D01*
X170381245Y-101788569D02*
X170165746Y-102004068D01*
X170462057Y-101222883D02*
X170462057Y-101169009D01*
X170462057Y-101169009D02*
X170488995Y-101088196D01*
X170488995Y-101088196D02*
X170623682Y-100953509D01*
X170623682Y-100953509D02*
X170704494Y-100926572D01*
X170704494Y-100926572D02*
X170758369Y-100926572D01*
X170758369Y-100926572D02*
X170839181Y-100953509D01*
X170839181Y-100953509D02*
X170893056Y-101007384D01*
X170893056Y-101007384D02*
X170946930Y-101115134D01*
X170946930Y-101115134D02*
X170946930Y-101761631D01*
X170946930Y-101761631D02*
X171297117Y-101411445D01*
X171081618Y-100495573D02*
X171135492Y-100441699D01*
X171135492Y-100441699D02*
X171216305Y-100414761D01*
X171216305Y-100414761D02*
X171270179Y-100414761D01*
X171270179Y-100414761D02*
X171350992Y-100441699D01*
X171350992Y-100441699D02*
X171485679Y-100522511D01*
X171485679Y-100522511D02*
X171620366Y-100657198D01*
X171620366Y-100657198D02*
X171701178Y-100791885D01*
X171701178Y-100791885D02*
X171728115Y-100872697D01*
X171728115Y-100872697D02*
X171728115Y-100926572D01*
X171728115Y-100926572D02*
X171701178Y-101007384D01*
X171701178Y-101007384D02*
X171647303Y-101061259D01*
X171647303Y-101061259D02*
X171566491Y-101088196D01*
X171566491Y-101088196D02*
X171512616Y-101088196D01*
X171512616Y-101088196D02*
X171431804Y-101061259D01*
X171431804Y-101061259D02*
X171297117Y-100980447D01*
X171297117Y-100980447D02*
X171162430Y-100845760D01*
X171162430Y-100845760D02*
X171081618Y-100711073D01*
X171081618Y-100711073D02*
X171054680Y-100630260D01*
X171054680Y-100630260D02*
X171054680Y-100576386D01*
X171054680Y-100576386D02*
X171081618Y-100495573D01*
X144015435Y-71281631D02*
X143934623Y-71308568D01*
X143934623Y-71308568D02*
X143853811Y-71389380D01*
X143853811Y-71389380D02*
X143799936Y-71497130D01*
X143799936Y-71497130D02*
X143799936Y-71604880D01*
X143799936Y-71604880D02*
X143826873Y-71685692D01*
X143826873Y-71685692D02*
X143907685Y-71820379D01*
X143907685Y-71820379D02*
X143988498Y-71901191D01*
X143988498Y-71901191D02*
X144123185Y-71982003D01*
X144123185Y-71982003D02*
X144203997Y-72008941D01*
X144203997Y-72008941D02*
X144311746Y-72008941D01*
X144311746Y-72008941D02*
X144419496Y-71955066D01*
X144419496Y-71955066D02*
X144473371Y-71901191D01*
X144473371Y-71901191D02*
X144527246Y-71793441D01*
X144527246Y-71793441D02*
X144527246Y-71739567D01*
X144527246Y-71739567D02*
X144338684Y-71551005D01*
X144338684Y-71551005D02*
X144230934Y-71658754D01*
X144823557Y-71551005D02*
X144257872Y-70985319D01*
X144257872Y-70985319D02*
X145146806Y-71227756D01*
X145146806Y-71227756D02*
X144581120Y-70662071D01*
X145416180Y-70958382D02*
X144850494Y-70392697D01*
X144850494Y-70392697D02*
X144985181Y-70258010D01*
X144985181Y-70258010D02*
X145092931Y-70204135D01*
X145092931Y-70204135D02*
X145200680Y-70204135D01*
X145200680Y-70204135D02*
X145281493Y-70231072D01*
X145281493Y-70231072D02*
X145416180Y-70311885D01*
X145416180Y-70311885D02*
X145496992Y-70392697D01*
X145496992Y-70392697D02*
X145577804Y-70527384D01*
X145577804Y-70527384D02*
X145604741Y-70608196D01*
X145604741Y-70608196D02*
X145604741Y-70715946D01*
X145604741Y-70715946D02*
X145550867Y-70823695D01*
X145550867Y-70823695D02*
X145416180Y-70958382D01*
X169615435Y-96681631D02*
X169534623Y-96708568D01*
X169534623Y-96708568D02*
X169453811Y-96789380D01*
X169453811Y-96789380D02*
X169399936Y-96897130D01*
X169399936Y-96897130D02*
X169399936Y-97004880D01*
X169399936Y-97004880D02*
X169426873Y-97085692D01*
X169426873Y-97085692D02*
X169507685Y-97220379D01*
X169507685Y-97220379D02*
X169588498Y-97301191D01*
X169588498Y-97301191D02*
X169723185Y-97382003D01*
X169723185Y-97382003D02*
X169803997Y-97408941D01*
X169803997Y-97408941D02*
X169911746Y-97408941D01*
X169911746Y-97408941D02*
X170019496Y-97355066D01*
X170019496Y-97355066D02*
X170073371Y-97301191D01*
X170073371Y-97301191D02*
X170127246Y-97193441D01*
X170127246Y-97193441D02*
X170127246Y-97139567D01*
X170127246Y-97139567D02*
X169938684Y-96951005D01*
X169938684Y-96951005D02*
X169830934Y-97058754D01*
X170423557Y-96951005D02*
X169857872Y-96385319D01*
X169857872Y-96385319D02*
X170746806Y-96627756D01*
X170746806Y-96627756D02*
X170181120Y-96062071D01*
X171016180Y-96358382D02*
X170450494Y-95792697D01*
X170450494Y-95792697D02*
X170585181Y-95658010D01*
X170585181Y-95658010D02*
X170692931Y-95604135D01*
X170692931Y-95604135D02*
X170800680Y-95604135D01*
X170800680Y-95604135D02*
X170881493Y-95631072D01*
X170881493Y-95631072D02*
X171016180Y-95711885D01*
X171016180Y-95711885D02*
X171096992Y-95792697D01*
X171096992Y-95792697D02*
X171177804Y-95927384D01*
X171177804Y-95927384D02*
X171204741Y-96008196D01*
X171204741Y-96008196D02*
X171204741Y-96115946D01*
X171204741Y-96115946D02*
X171150867Y-96223695D01*
X171150867Y-96223695D02*
X171016180Y-96358382D01*
X169626998Y-94384068D02*
X169546185Y-94411005D01*
X169546185Y-94411005D02*
X169465373Y-94491818D01*
X169465373Y-94491818D02*
X169411498Y-94599567D01*
X169411498Y-94599567D02*
X169411498Y-94707317D01*
X169411498Y-94707317D02*
X169438436Y-94788129D01*
X169438436Y-94788129D02*
X169519248Y-94922816D01*
X169519248Y-94922816D02*
X169600060Y-95003628D01*
X169600060Y-95003628D02*
X169734747Y-95084441D01*
X169734747Y-95084441D02*
X169815560Y-95111378D01*
X169815560Y-95111378D02*
X169923309Y-95111378D01*
X169923309Y-95111378D02*
X170031059Y-95057503D01*
X170031059Y-95057503D02*
X170084934Y-95003628D01*
X170084934Y-95003628D02*
X170138808Y-94895879D01*
X170138808Y-94895879D02*
X170138808Y-94842004D01*
X170138808Y-94842004D02*
X169950247Y-94653442D01*
X169950247Y-94653442D02*
X169842497Y-94761192D01*
X170435120Y-94653442D02*
X169869434Y-94087757D01*
X169869434Y-94087757D02*
X170084934Y-93872257D01*
X170084934Y-93872257D02*
X170165746Y-93845320D01*
X170165746Y-93845320D02*
X170219621Y-93845320D01*
X170219621Y-93845320D02*
X170300433Y-93872257D01*
X170300433Y-93872257D02*
X170381245Y-93953070D01*
X170381245Y-93953070D02*
X170408182Y-94033882D01*
X170408182Y-94033882D02*
X170408182Y-94087757D01*
X170408182Y-94087757D02*
X170381245Y-94168569D01*
X170381245Y-94168569D02*
X170165746Y-94384068D01*
X170462057Y-93602883D02*
X170462057Y-93549009D01*
X170462057Y-93549009D02*
X170488995Y-93468196D01*
X170488995Y-93468196D02*
X170623682Y-93333509D01*
X170623682Y-93333509D02*
X170704494Y-93306572D01*
X170704494Y-93306572D02*
X170758369Y-93306572D01*
X170758369Y-93306572D02*
X170839181Y-93333509D01*
X170839181Y-93333509D02*
X170893056Y-93387384D01*
X170893056Y-93387384D02*
X170946930Y-93495134D01*
X170946930Y-93495134D02*
X170946930Y-94141631D01*
X170946930Y-94141631D02*
X171297117Y-93791445D01*
X171000805Y-93064135D02*
X171000805Y-93010260D01*
X171000805Y-93010260D02*
X171027743Y-92929448D01*
X171027743Y-92929448D02*
X171162430Y-92794761D01*
X171162430Y-92794761D02*
X171243242Y-92767824D01*
X171243242Y-92767824D02*
X171297117Y-92767824D01*
X171297117Y-92767824D02*
X171377929Y-92794761D01*
X171377929Y-92794761D02*
X171431804Y-92848636D01*
X171431804Y-92848636D02*
X171485679Y-92956386D01*
X171485679Y-92956386D02*
X171485679Y-93602883D01*
X171485679Y-93602883D02*
X171835865Y-93252697D01*
X143942372Y-73794694D02*
X143861560Y-73821631D01*
X143861560Y-73821631D02*
X143780748Y-73902443D01*
X143780748Y-73902443D02*
X143726873Y-74010193D01*
X143726873Y-74010193D02*
X143726873Y-74117942D01*
X143726873Y-74117942D02*
X143753810Y-74198755D01*
X143753810Y-74198755D02*
X143834623Y-74333442D01*
X143834623Y-74333442D02*
X143915435Y-74414254D01*
X143915435Y-74414254D02*
X144050122Y-74495066D01*
X144050122Y-74495066D02*
X144130934Y-74522003D01*
X144130934Y-74522003D02*
X144238684Y-74522003D01*
X144238684Y-74522003D02*
X144346433Y-74468129D01*
X144346433Y-74468129D02*
X144400308Y-74414254D01*
X144400308Y-74414254D02*
X144454183Y-74306504D01*
X144454183Y-74306504D02*
X144454183Y-74252629D01*
X144454183Y-74252629D02*
X144265621Y-74064068D01*
X144265621Y-74064068D02*
X144157871Y-74171817D01*
X144750494Y-74064068D02*
X144184809Y-73498382D01*
X144184809Y-73498382D02*
X144400308Y-73282883D01*
X144400308Y-73282883D02*
X144481120Y-73255946D01*
X144481120Y-73255946D02*
X144534995Y-73255946D01*
X144534995Y-73255946D02*
X144615807Y-73282883D01*
X144615807Y-73282883D02*
X144696619Y-73363695D01*
X144696619Y-73363695D02*
X144723557Y-73444507D01*
X144723557Y-73444507D02*
X144723557Y-73498382D01*
X144723557Y-73498382D02*
X144696619Y-73579194D01*
X144696619Y-73579194D02*
X144481120Y-73794694D01*
X144777432Y-73013509D02*
X144777432Y-72959634D01*
X144777432Y-72959634D02*
X144804369Y-72878822D01*
X144804369Y-72878822D02*
X144939056Y-72744135D01*
X144939056Y-72744135D02*
X145019868Y-72717198D01*
X145019868Y-72717198D02*
X145073743Y-72717198D01*
X145073743Y-72717198D02*
X145154555Y-72744135D01*
X145154555Y-72744135D02*
X145208430Y-72798010D01*
X145208430Y-72798010D02*
X145262305Y-72905759D01*
X145262305Y-72905759D02*
X145262305Y-73552257D01*
X145262305Y-73552257D02*
X145612491Y-73202071D01*
X144015435Y-109381631D02*
X143934623Y-109408568D01*
X143934623Y-109408568D02*
X143853811Y-109489380D01*
X143853811Y-109489380D02*
X143799936Y-109597130D01*
X143799936Y-109597130D02*
X143799936Y-109704880D01*
X143799936Y-109704880D02*
X143826873Y-109785692D01*
X143826873Y-109785692D02*
X143907685Y-109920379D01*
X143907685Y-109920379D02*
X143988498Y-110001191D01*
X143988498Y-110001191D02*
X144123185Y-110082003D01*
X144123185Y-110082003D02*
X144203997Y-110108941D01*
X144203997Y-110108941D02*
X144311746Y-110108941D01*
X144311746Y-110108941D02*
X144419496Y-110055066D01*
X144419496Y-110055066D02*
X144473371Y-110001191D01*
X144473371Y-110001191D02*
X144527246Y-109893441D01*
X144527246Y-109893441D02*
X144527246Y-109839567D01*
X144527246Y-109839567D02*
X144338684Y-109651005D01*
X144338684Y-109651005D02*
X144230934Y-109758754D01*
X144823557Y-109651005D02*
X144257872Y-109085319D01*
X144257872Y-109085319D02*
X145146806Y-109327756D01*
X145146806Y-109327756D02*
X144581120Y-108762071D01*
X145416180Y-109058382D02*
X144850494Y-108492697D01*
X144850494Y-108492697D02*
X144985181Y-108358010D01*
X144985181Y-108358010D02*
X145092931Y-108304135D01*
X145092931Y-108304135D02*
X145200680Y-108304135D01*
X145200680Y-108304135D02*
X145281493Y-108331072D01*
X145281493Y-108331072D02*
X145416180Y-108411885D01*
X145416180Y-108411885D02*
X145496992Y-108492697D01*
X145496992Y-108492697D02*
X145577804Y-108627384D01*
X145577804Y-108627384D02*
X145604741Y-108708196D01*
X145604741Y-108708196D02*
X145604741Y-108815946D01*
X145604741Y-108815946D02*
X145550867Y-108923695D01*
X145550867Y-108923695D02*
X145416180Y-109058382D01*
X144015435Y-96681631D02*
X143934623Y-96708568D01*
X143934623Y-96708568D02*
X143853811Y-96789380D01*
X143853811Y-96789380D02*
X143799936Y-96897130D01*
X143799936Y-96897130D02*
X143799936Y-97004880D01*
X143799936Y-97004880D02*
X143826873Y-97085692D01*
X143826873Y-97085692D02*
X143907685Y-97220379D01*
X143907685Y-97220379D02*
X143988498Y-97301191D01*
X143988498Y-97301191D02*
X144123185Y-97382003D01*
X144123185Y-97382003D02*
X144203997Y-97408941D01*
X144203997Y-97408941D02*
X144311746Y-97408941D01*
X144311746Y-97408941D02*
X144419496Y-97355066D01*
X144419496Y-97355066D02*
X144473371Y-97301191D01*
X144473371Y-97301191D02*
X144527246Y-97193441D01*
X144527246Y-97193441D02*
X144527246Y-97139567D01*
X144527246Y-97139567D02*
X144338684Y-96951005D01*
X144338684Y-96951005D02*
X144230934Y-97058754D01*
X144823557Y-96951005D02*
X144257872Y-96385319D01*
X144257872Y-96385319D02*
X145146806Y-96627756D01*
X145146806Y-96627756D02*
X144581120Y-96062071D01*
X145416180Y-96358382D02*
X144850494Y-95792697D01*
X144850494Y-95792697D02*
X144985181Y-95658010D01*
X144985181Y-95658010D02*
X145092931Y-95604135D01*
X145092931Y-95604135D02*
X145200680Y-95604135D01*
X145200680Y-95604135D02*
X145281493Y-95631072D01*
X145281493Y-95631072D02*
X145416180Y-95711885D01*
X145416180Y-95711885D02*
X145496992Y-95792697D01*
X145496992Y-95792697D02*
X145577804Y-95927384D01*
X145577804Y-95927384D02*
X145604741Y-96008196D01*
X145604741Y-96008196D02*
X145604741Y-96115946D01*
X145604741Y-96115946D02*
X145550867Y-96223695D01*
X145550867Y-96223695D02*
X145416180Y-96358382D01*
X144042372Y-76334694D02*
X143961560Y-76361631D01*
X143961560Y-76361631D02*
X143880748Y-76442443D01*
X143880748Y-76442443D02*
X143826873Y-76550193D01*
X143826873Y-76550193D02*
X143826873Y-76657942D01*
X143826873Y-76657942D02*
X143853810Y-76738755D01*
X143853810Y-76738755D02*
X143934623Y-76873442D01*
X143934623Y-76873442D02*
X144015435Y-76954254D01*
X144015435Y-76954254D02*
X144150122Y-77035066D01*
X144150122Y-77035066D02*
X144230934Y-77062003D01*
X144230934Y-77062003D02*
X144338684Y-77062003D01*
X144338684Y-77062003D02*
X144446433Y-77008129D01*
X144446433Y-77008129D02*
X144500308Y-76954254D01*
X144500308Y-76954254D02*
X144554183Y-76846504D01*
X144554183Y-76846504D02*
X144554183Y-76792629D01*
X144554183Y-76792629D02*
X144365621Y-76604068D01*
X144365621Y-76604068D02*
X144257871Y-76711817D01*
X144850494Y-76604068D02*
X144284809Y-76038382D01*
X144284809Y-76038382D02*
X144500308Y-75822883D01*
X144500308Y-75822883D02*
X144581120Y-75795946D01*
X144581120Y-75795946D02*
X144634995Y-75795946D01*
X144634995Y-75795946D02*
X144715807Y-75822883D01*
X144715807Y-75822883D02*
X144796619Y-75903695D01*
X144796619Y-75903695D02*
X144823557Y-75984507D01*
X144823557Y-75984507D02*
X144823557Y-76038382D01*
X144823557Y-76038382D02*
X144796619Y-76119194D01*
X144796619Y-76119194D02*
X144581120Y-76334694D01*
X144796619Y-75526572D02*
X145146806Y-75176385D01*
X145146806Y-75176385D02*
X145173743Y-75580446D01*
X145173743Y-75580446D02*
X145254555Y-75499634D01*
X145254555Y-75499634D02*
X145335367Y-75472697D01*
X145335367Y-75472697D02*
X145389242Y-75472697D01*
X145389242Y-75472697D02*
X145470054Y-75499634D01*
X145470054Y-75499634D02*
X145604741Y-75634321D01*
X145604741Y-75634321D02*
X145631679Y-75715133D01*
X145631679Y-75715133D02*
X145631679Y-75769008D01*
X145631679Y-75769008D02*
X145604741Y-75849820D01*
X145604741Y-75849820D02*
X145443117Y-76011445D01*
X145443117Y-76011445D02*
X145362305Y-76038382D01*
X145362305Y-76038382D02*
X145308430Y-76038382D01*
X170182406Y-79218907D02*
X170451780Y-78949533D01*
X170290155Y-79434407D02*
X169913032Y-78680159D01*
X169913032Y-78680159D02*
X170667279Y-79057283D01*
X170855841Y-78868721D02*
X170290155Y-78303036D01*
X170290155Y-78303036D02*
X170424842Y-78168349D01*
X170424842Y-78168349D02*
X170532592Y-78114474D01*
X170532592Y-78114474D02*
X170640341Y-78114474D01*
X170640341Y-78114474D02*
X170721154Y-78141411D01*
X170721154Y-78141411D02*
X170855841Y-78222224D01*
X170855841Y-78222224D02*
X170936653Y-78303036D01*
X170936653Y-78303036D02*
X171017465Y-78437723D01*
X171017465Y-78437723D02*
X171044402Y-78518535D01*
X171044402Y-78518535D02*
X171044402Y-78626285D01*
X171044402Y-78626285D02*
X170990528Y-78734034D01*
X170990528Y-78734034D02*
X170855841Y-78868721D01*
X171690900Y-77925912D02*
X171690900Y-77979787D01*
X171690900Y-77979787D02*
X171637025Y-78087537D01*
X171637025Y-78087537D02*
X171583150Y-78141411D01*
X171583150Y-78141411D02*
X171475401Y-78195286D01*
X171475401Y-78195286D02*
X171367651Y-78195286D01*
X171367651Y-78195286D02*
X171286839Y-78168349D01*
X171286839Y-78168349D02*
X171152152Y-78087537D01*
X171152152Y-78087537D02*
X171071340Y-78006724D01*
X171071340Y-78006724D02*
X170990528Y-77872037D01*
X170990528Y-77872037D02*
X170963590Y-77791225D01*
X170963590Y-77791225D02*
X170963590Y-77683476D01*
X170963590Y-77683476D02*
X171017465Y-77575726D01*
X171017465Y-77575726D02*
X171071340Y-77521851D01*
X171071340Y-77521851D02*
X171179089Y-77467976D01*
X171179089Y-77467976D02*
X171232964Y-77467976D01*
X171906399Y-77925912D02*
X172337398Y-77494914D01*
X171771712Y-76821479D02*
X172525960Y-77198602D01*
X172525960Y-77198602D02*
X172148836Y-76444355D01*
X173226332Y-76498230D02*
X172768396Y-76417418D01*
X172903083Y-76821479D02*
X172337398Y-76255793D01*
X172337398Y-76255793D02*
X172552897Y-76040294D01*
X172552897Y-76040294D02*
X172633709Y-76013357D01*
X172633709Y-76013357D02*
X172687584Y-76013357D01*
X172687584Y-76013357D02*
X172768396Y-76040294D01*
X172768396Y-76040294D02*
X172849208Y-76121106D01*
X172849208Y-76121106D02*
X172876146Y-76201919D01*
X172876146Y-76201919D02*
X172876146Y-76255793D01*
X172876146Y-76255793D02*
X172849208Y-76336606D01*
X172849208Y-76336606D02*
X172633709Y-76552105D01*
X169626998Y-104544068D02*
X169546185Y-104571005D01*
X169546185Y-104571005D02*
X169465373Y-104651818D01*
X169465373Y-104651818D02*
X169411498Y-104759567D01*
X169411498Y-104759567D02*
X169411498Y-104867317D01*
X169411498Y-104867317D02*
X169438436Y-104948129D01*
X169438436Y-104948129D02*
X169519248Y-105082816D01*
X169519248Y-105082816D02*
X169600060Y-105163628D01*
X169600060Y-105163628D02*
X169734747Y-105244441D01*
X169734747Y-105244441D02*
X169815560Y-105271378D01*
X169815560Y-105271378D02*
X169923309Y-105271378D01*
X169923309Y-105271378D02*
X170031059Y-105217503D01*
X170031059Y-105217503D02*
X170084934Y-105163628D01*
X170084934Y-105163628D02*
X170138808Y-105055879D01*
X170138808Y-105055879D02*
X170138808Y-105002004D01*
X170138808Y-105002004D02*
X169950247Y-104813442D01*
X169950247Y-104813442D02*
X169842497Y-104921192D01*
X170435120Y-104813442D02*
X169869434Y-104247757D01*
X169869434Y-104247757D02*
X170084934Y-104032257D01*
X170084934Y-104032257D02*
X170165746Y-104005320D01*
X170165746Y-104005320D02*
X170219621Y-104005320D01*
X170219621Y-104005320D02*
X170300433Y-104032257D01*
X170300433Y-104032257D02*
X170381245Y-104113070D01*
X170381245Y-104113070D02*
X170408182Y-104193882D01*
X170408182Y-104193882D02*
X170408182Y-104247757D01*
X170408182Y-104247757D02*
X170381245Y-104328569D01*
X170381245Y-104328569D02*
X170165746Y-104544068D01*
X171297117Y-103951445D02*
X170973868Y-104274694D01*
X171135492Y-104113070D02*
X170569807Y-103547384D01*
X170569807Y-103547384D02*
X170596744Y-103682071D01*
X170596744Y-103682071D02*
X170596744Y-103789821D01*
X170596744Y-103789821D02*
X170569807Y-103870633D01*
X171566491Y-103682071D02*
X171674240Y-103574321D01*
X171674240Y-103574321D02*
X171701178Y-103493509D01*
X171701178Y-103493509D02*
X171701178Y-103439634D01*
X171701178Y-103439634D02*
X171674240Y-103304947D01*
X171674240Y-103304947D02*
X171593428Y-103170260D01*
X171593428Y-103170260D02*
X171377929Y-102954761D01*
X171377929Y-102954761D02*
X171297117Y-102927824D01*
X171297117Y-102927824D02*
X171243242Y-102927824D01*
X171243242Y-102927824D02*
X171162430Y-102954761D01*
X171162430Y-102954761D02*
X171054680Y-103062511D01*
X171054680Y-103062511D02*
X171027743Y-103143323D01*
X171027743Y-103143323D02*
X171027743Y-103197198D01*
X171027743Y-103197198D02*
X171054680Y-103278010D01*
X171054680Y-103278010D02*
X171189367Y-103412697D01*
X171189367Y-103412697D02*
X171270179Y-103439634D01*
X171270179Y-103439634D02*
X171324054Y-103439634D01*
X171324054Y-103439634D02*
X171404866Y-103412697D01*
X171404866Y-103412697D02*
X171512616Y-103304947D01*
X171512616Y-103304947D02*
X171539553Y-103224135D01*
X171539553Y-103224135D02*
X171539553Y-103170260D01*
X171539553Y-103170260D02*
X171512616Y-103089448D01*
X169626998Y-81430068D02*
X169546185Y-81457005D01*
X169546185Y-81457005D02*
X169465373Y-81537818D01*
X169465373Y-81537818D02*
X169411498Y-81645567D01*
X169411498Y-81645567D02*
X169411498Y-81753317D01*
X169411498Y-81753317D02*
X169438436Y-81834129D01*
X169438436Y-81834129D02*
X169519248Y-81968816D01*
X169519248Y-81968816D02*
X169600060Y-82049628D01*
X169600060Y-82049628D02*
X169734747Y-82130441D01*
X169734747Y-82130441D02*
X169815560Y-82157378D01*
X169815560Y-82157378D02*
X169923309Y-82157378D01*
X169923309Y-82157378D02*
X170031059Y-82103503D01*
X170031059Y-82103503D02*
X170084934Y-82049628D01*
X170084934Y-82049628D02*
X170138808Y-81941879D01*
X170138808Y-81941879D02*
X170138808Y-81888004D01*
X170138808Y-81888004D02*
X169950247Y-81699442D01*
X169950247Y-81699442D02*
X169842497Y-81807192D01*
X170435120Y-81699442D02*
X169869434Y-81133757D01*
X169869434Y-81133757D02*
X170084934Y-80918257D01*
X170084934Y-80918257D02*
X170165746Y-80891320D01*
X170165746Y-80891320D02*
X170219621Y-80891320D01*
X170219621Y-80891320D02*
X170300433Y-80918257D01*
X170300433Y-80918257D02*
X170381245Y-80999070D01*
X170381245Y-80999070D02*
X170408182Y-81079882D01*
X170408182Y-81079882D02*
X170408182Y-81133757D01*
X170408182Y-81133757D02*
X170381245Y-81214569D01*
X170381245Y-81214569D02*
X170165746Y-81430068D01*
X170462057Y-80648883D02*
X170462057Y-80595009D01*
X170462057Y-80595009D02*
X170488995Y-80514196D01*
X170488995Y-80514196D02*
X170623682Y-80379509D01*
X170623682Y-80379509D02*
X170704494Y-80352572D01*
X170704494Y-80352572D02*
X170758369Y-80352572D01*
X170758369Y-80352572D02*
X170839181Y-80379509D01*
X170839181Y-80379509D02*
X170893056Y-80433384D01*
X170893056Y-80433384D02*
X170946930Y-80541134D01*
X170946930Y-80541134D02*
X170946930Y-81187631D01*
X170946930Y-81187631D02*
X171297117Y-80837445D01*
X171297117Y-80190947D02*
X171216305Y-80217885D01*
X171216305Y-80217885D02*
X171162430Y-80217885D01*
X171162430Y-80217885D02*
X171081618Y-80190947D01*
X171081618Y-80190947D02*
X171054680Y-80164010D01*
X171054680Y-80164010D02*
X171027743Y-80083198D01*
X171027743Y-80083198D02*
X171027743Y-80029323D01*
X171027743Y-80029323D02*
X171054680Y-79948511D01*
X171054680Y-79948511D02*
X171162430Y-79840761D01*
X171162430Y-79840761D02*
X171243242Y-79813824D01*
X171243242Y-79813824D02*
X171297117Y-79813824D01*
X171297117Y-79813824D02*
X171377929Y-79840761D01*
X171377929Y-79840761D02*
X171404866Y-79867699D01*
X171404866Y-79867699D02*
X171431804Y-79948511D01*
X171431804Y-79948511D02*
X171431804Y-80002386D01*
X171431804Y-80002386D02*
X171404866Y-80083198D01*
X171404866Y-80083198D02*
X171297117Y-80190947D01*
X171297117Y-80190947D02*
X171270179Y-80271760D01*
X171270179Y-80271760D02*
X171270179Y-80325634D01*
X171270179Y-80325634D02*
X171297117Y-80406447D01*
X171297117Y-80406447D02*
X171404866Y-80514196D01*
X171404866Y-80514196D02*
X171485679Y-80541134D01*
X171485679Y-80541134D02*
X171539553Y-80541134D01*
X171539553Y-80541134D02*
X171620366Y-80514196D01*
X171620366Y-80514196D02*
X171728115Y-80406447D01*
X171728115Y-80406447D02*
X171755053Y-80325634D01*
X171755053Y-80325634D02*
X171755053Y-80271760D01*
X171755053Y-80271760D02*
X171728115Y-80190947D01*
X171728115Y-80190947D02*
X171620366Y-80083198D01*
X171620366Y-80083198D02*
X171539553Y-80056260D01*
X171539553Y-80056260D02*
X171485679Y-80056260D01*
X171485679Y-80056260D02*
X171404866Y-80083198D01*
X169419123Y-76674068D02*
X169769309Y-76323882D01*
X169769309Y-76323882D02*
X169796247Y-76727943D01*
X169796247Y-76727943D02*
X169877059Y-76647131D01*
X169877059Y-76647131D02*
X169957871Y-76620193D01*
X169957871Y-76620193D02*
X170011746Y-76620193D01*
X170011746Y-76620193D02*
X170092558Y-76647131D01*
X170092558Y-76647131D02*
X170227245Y-76781818D01*
X170227245Y-76781818D02*
X170254182Y-76862630D01*
X170254182Y-76862630D02*
X170254182Y-76916505D01*
X170254182Y-76916505D02*
X170227245Y-76997317D01*
X170227245Y-76997317D02*
X170065621Y-77158941D01*
X170065621Y-77158941D02*
X169984808Y-77185879D01*
X169984808Y-77185879D02*
X169930934Y-77185879D01*
X169930934Y-76162257D02*
X170685181Y-76539381D01*
X170685181Y-76539381D02*
X170308057Y-75785134D01*
X170442744Y-75650447D02*
X170792930Y-75300261D01*
X170792930Y-75300261D02*
X170819868Y-75704322D01*
X170819868Y-75704322D02*
X170900680Y-75623509D01*
X170900680Y-75623509D02*
X170981492Y-75596572D01*
X170981492Y-75596572D02*
X171035367Y-75596572D01*
X171035367Y-75596572D02*
X171116179Y-75623509D01*
X171116179Y-75623509D02*
X171250866Y-75758196D01*
X171250866Y-75758196D02*
X171277804Y-75839009D01*
X171277804Y-75839009D02*
X171277804Y-75892883D01*
X171277804Y-75892883D02*
X171250866Y-75973696D01*
X171250866Y-75973696D02*
X171089242Y-76135320D01*
X171089242Y-76135320D02*
X171008430Y-76162257D01*
X171008430Y-76162257D02*
X170954555Y-76162257D01*
X169626998Y-114704068D02*
X169546185Y-114731005D01*
X169546185Y-114731005D02*
X169465373Y-114811818D01*
X169465373Y-114811818D02*
X169411498Y-114919567D01*
X169411498Y-114919567D02*
X169411498Y-115027317D01*
X169411498Y-115027317D02*
X169438436Y-115108129D01*
X169438436Y-115108129D02*
X169519248Y-115242816D01*
X169519248Y-115242816D02*
X169600060Y-115323628D01*
X169600060Y-115323628D02*
X169734747Y-115404441D01*
X169734747Y-115404441D02*
X169815560Y-115431378D01*
X169815560Y-115431378D02*
X169923309Y-115431378D01*
X169923309Y-115431378D02*
X170031059Y-115377503D01*
X170031059Y-115377503D02*
X170084934Y-115323628D01*
X170084934Y-115323628D02*
X170138808Y-115215879D01*
X170138808Y-115215879D02*
X170138808Y-115162004D01*
X170138808Y-115162004D02*
X169950247Y-114973442D01*
X169950247Y-114973442D02*
X169842497Y-115081192D01*
X170435120Y-114973442D02*
X169869434Y-114407757D01*
X169869434Y-114407757D02*
X170084934Y-114192257D01*
X170084934Y-114192257D02*
X170165746Y-114165320D01*
X170165746Y-114165320D02*
X170219621Y-114165320D01*
X170219621Y-114165320D02*
X170300433Y-114192257D01*
X170300433Y-114192257D02*
X170381245Y-114273070D01*
X170381245Y-114273070D02*
X170408182Y-114353882D01*
X170408182Y-114353882D02*
X170408182Y-114407757D01*
X170408182Y-114407757D02*
X170381245Y-114488569D01*
X170381245Y-114488569D02*
X170165746Y-114704068D01*
X171297117Y-114111445D02*
X170973868Y-114434694D01*
X171135492Y-114273070D02*
X170569807Y-113707384D01*
X170569807Y-113707384D02*
X170596744Y-113842071D01*
X170596744Y-113842071D02*
X170596744Y-113949821D01*
X170596744Y-113949821D02*
X170569807Y-114030633D01*
X171216305Y-113060886D02*
X171108555Y-113168636D01*
X171108555Y-113168636D02*
X171081618Y-113249448D01*
X171081618Y-113249448D02*
X171081618Y-113303323D01*
X171081618Y-113303323D02*
X171108555Y-113438010D01*
X171108555Y-113438010D02*
X171189367Y-113572697D01*
X171189367Y-113572697D02*
X171404866Y-113788196D01*
X171404866Y-113788196D02*
X171485679Y-113815134D01*
X171485679Y-113815134D02*
X171539553Y-113815134D01*
X171539553Y-113815134D02*
X171620366Y-113788196D01*
X171620366Y-113788196D02*
X171728115Y-113680447D01*
X171728115Y-113680447D02*
X171755053Y-113599634D01*
X171755053Y-113599634D02*
X171755053Y-113545760D01*
X171755053Y-113545760D02*
X171728115Y-113464947D01*
X171728115Y-113464947D02*
X171593428Y-113330260D01*
X171593428Y-113330260D02*
X171512616Y-113303323D01*
X171512616Y-113303323D02*
X171458741Y-113303323D01*
X171458741Y-113303323D02*
X171377929Y-113330260D01*
X171377929Y-113330260D02*
X171270179Y-113438010D01*
X171270179Y-113438010D02*
X171243242Y-113518822D01*
X171243242Y-113518822D02*
X171243242Y-113572697D01*
X171243242Y-113572697D02*
X171270179Y-113653509D01*
X143472998Y-112164068D02*
X143392185Y-112191005D01*
X143392185Y-112191005D02*
X143311373Y-112271818D01*
X143311373Y-112271818D02*
X143257498Y-112379567D01*
X143257498Y-112379567D02*
X143257498Y-112487317D01*
X143257498Y-112487317D02*
X143284436Y-112568129D01*
X143284436Y-112568129D02*
X143365248Y-112702816D01*
X143365248Y-112702816D02*
X143446060Y-112783628D01*
X143446060Y-112783628D02*
X143580747Y-112864441D01*
X143580747Y-112864441D02*
X143661560Y-112891378D01*
X143661560Y-112891378D02*
X143769309Y-112891378D01*
X143769309Y-112891378D02*
X143877059Y-112837503D01*
X143877059Y-112837503D02*
X143930934Y-112783628D01*
X143930934Y-112783628D02*
X143984808Y-112675879D01*
X143984808Y-112675879D02*
X143984808Y-112622004D01*
X143984808Y-112622004D02*
X143796247Y-112433442D01*
X143796247Y-112433442D02*
X143688497Y-112541192D01*
X144281120Y-112433442D02*
X143715434Y-111867757D01*
X143715434Y-111867757D02*
X143930934Y-111652257D01*
X143930934Y-111652257D02*
X144011746Y-111625320D01*
X144011746Y-111625320D02*
X144065621Y-111625320D01*
X144065621Y-111625320D02*
X144146433Y-111652257D01*
X144146433Y-111652257D02*
X144227245Y-111733070D01*
X144227245Y-111733070D02*
X144254182Y-111813882D01*
X144254182Y-111813882D02*
X144254182Y-111867757D01*
X144254182Y-111867757D02*
X144227245Y-111948569D01*
X144227245Y-111948569D02*
X144011746Y-112164068D01*
X145143117Y-111571445D02*
X144819868Y-111894694D01*
X144981492Y-111733070D02*
X144415807Y-111167384D01*
X144415807Y-111167384D02*
X144442744Y-111302071D01*
X144442744Y-111302071D02*
X144442744Y-111409821D01*
X144442744Y-111409821D02*
X144415807Y-111490633D01*
X145250866Y-110709448D02*
X145627990Y-111086572D01*
X144900680Y-110628636D02*
X145170054Y-111167384D01*
X145170054Y-111167384D02*
X145520240Y-110817198D01*
X144142372Y-89004694D02*
X144061560Y-89031631D01*
X144061560Y-89031631D02*
X143980748Y-89112443D01*
X143980748Y-89112443D02*
X143926873Y-89220193D01*
X143926873Y-89220193D02*
X143926873Y-89327942D01*
X143926873Y-89327942D02*
X143953810Y-89408755D01*
X143953810Y-89408755D02*
X144034623Y-89543442D01*
X144034623Y-89543442D02*
X144115435Y-89624254D01*
X144115435Y-89624254D02*
X144250122Y-89705066D01*
X144250122Y-89705066D02*
X144330934Y-89732003D01*
X144330934Y-89732003D02*
X144438684Y-89732003D01*
X144438684Y-89732003D02*
X144546433Y-89678129D01*
X144546433Y-89678129D02*
X144600308Y-89624254D01*
X144600308Y-89624254D02*
X144654183Y-89516504D01*
X144654183Y-89516504D02*
X144654183Y-89462629D01*
X144654183Y-89462629D02*
X144465621Y-89274068D01*
X144465621Y-89274068D02*
X144357871Y-89381817D01*
X144950494Y-89274068D02*
X144384809Y-88708382D01*
X144384809Y-88708382D02*
X144600308Y-88492883D01*
X144600308Y-88492883D02*
X144681120Y-88465946D01*
X144681120Y-88465946D02*
X144734995Y-88465946D01*
X144734995Y-88465946D02*
X144815807Y-88492883D01*
X144815807Y-88492883D02*
X144896619Y-88573695D01*
X144896619Y-88573695D02*
X144923557Y-88654507D01*
X144923557Y-88654507D02*
X144923557Y-88708382D01*
X144923557Y-88708382D02*
X144896619Y-88789194D01*
X144896619Y-88789194D02*
X144681120Y-89004694D01*
X144896619Y-88196572D02*
X145273743Y-87819448D01*
X145273743Y-87819448D02*
X145596992Y-88627570D01*
X143518998Y-114704068D02*
X143438185Y-114731005D01*
X143438185Y-114731005D02*
X143357373Y-114811818D01*
X143357373Y-114811818D02*
X143303498Y-114919567D01*
X143303498Y-114919567D02*
X143303498Y-115027317D01*
X143303498Y-115027317D02*
X143330436Y-115108129D01*
X143330436Y-115108129D02*
X143411248Y-115242816D01*
X143411248Y-115242816D02*
X143492060Y-115323628D01*
X143492060Y-115323628D02*
X143626747Y-115404441D01*
X143626747Y-115404441D02*
X143707560Y-115431378D01*
X143707560Y-115431378D02*
X143815309Y-115431378D01*
X143815309Y-115431378D02*
X143923059Y-115377503D01*
X143923059Y-115377503D02*
X143976934Y-115323628D01*
X143976934Y-115323628D02*
X144030808Y-115215879D01*
X144030808Y-115215879D02*
X144030808Y-115162004D01*
X144030808Y-115162004D02*
X143842247Y-114973442D01*
X143842247Y-114973442D02*
X143734497Y-115081192D01*
X144327120Y-114973442D02*
X143761434Y-114407757D01*
X143761434Y-114407757D02*
X143976934Y-114192257D01*
X143976934Y-114192257D02*
X144057746Y-114165320D01*
X144057746Y-114165320D02*
X144111621Y-114165320D01*
X144111621Y-114165320D02*
X144192433Y-114192257D01*
X144192433Y-114192257D02*
X144273245Y-114273070D01*
X144273245Y-114273070D02*
X144300182Y-114353882D01*
X144300182Y-114353882D02*
X144300182Y-114407757D01*
X144300182Y-114407757D02*
X144273245Y-114488569D01*
X144273245Y-114488569D02*
X144057746Y-114704068D01*
X145189117Y-114111445D02*
X144865868Y-114434694D01*
X145027492Y-114273070D02*
X144461807Y-113707384D01*
X144461807Y-113707384D02*
X144488744Y-113842071D01*
X144488744Y-113842071D02*
X144488744Y-113949821D01*
X144488744Y-113949821D02*
X144461807Y-114030633D01*
X145135242Y-113033949D02*
X144865868Y-113303323D01*
X144865868Y-113303323D02*
X145108305Y-113599634D01*
X145108305Y-113599634D02*
X145108305Y-113545760D01*
X145108305Y-113545760D02*
X145135242Y-113464947D01*
X145135242Y-113464947D02*
X145269929Y-113330260D01*
X145269929Y-113330260D02*
X145350741Y-113303323D01*
X145350741Y-113303323D02*
X145404616Y-113303323D01*
X145404616Y-113303323D02*
X145485428Y-113330260D01*
X145485428Y-113330260D02*
X145620115Y-113464947D01*
X145620115Y-113464947D02*
X145647053Y-113545760D01*
X145647053Y-113545760D02*
X145647053Y-113599634D01*
X145647053Y-113599634D02*
X145620115Y-113680447D01*
X145620115Y-113680447D02*
X145485428Y-113815134D01*
X145485428Y-113815134D02*
X145404616Y-113842071D01*
X145404616Y-113842071D02*
X145350741Y-113842071D01*
X144042372Y-66174694D02*
X143961560Y-66201631D01*
X143961560Y-66201631D02*
X143880748Y-66282443D01*
X143880748Y-66282443D02*
X143826873Y-66390193D01*
X143826873Y-66390193D02*
X143826873Y-66497942D01*
X143826873Y-66497942D02*
X143853810Y-66578755D01*
X143853810Y-66578755D02*
X143934623Y-66713442D01*
X143934623Y-66713442D02*
X144015435Y-66794254D01*
X144015435Y-66794254D02*
X144150122Y-66875066D01*
X144150122Y-66875066D02*
X144230934Y-66902003D01*
X144230934Y-66902003D02*
X144338684Y-66902003D01*
X144338684Y-66902003D02*
X144446433Y-66848129D01*
X144446433Y-66848129D02*
X144500308Y-66794254D01*
X144500308Y-66794254D02*
X144554183Y-66686504D01*
X144554183Y-66686504D02*
X144554183Y-66632629D01*
X144554183Y-66632629D02*
X144365621Y-66444068D01*
X144365621Y-66444068D02*
X144257871Y-66551817D01*
X144850494Y-66444068D02*
X144284809Y-65878382D01*
X144284809Y-65878382D02*
X144500308Y-65662883D01*
X144500308Y-65662883D02*
X144581120Y-65635946D01*
X144581120Y-65635946D02*
X144634995Y-65635946D01*
X144634995Y-65635946D02*
X144715807Y-65662883D01*
X144715807Y-65662883D02*
X144796619Y-65743695D01*
X144796619Y-65743695D02*
X144823557Y-65824507D01*
X144823557Y-65824507D02*
X144823557Y-65878382D01*
X144823557Y-65878382D02*
X144796619Y-65959194D01*
X144796619Y-65959194D02*
X144581120Y-66174694D01*
X144958244Y-65204947D02*
X145012119Y-65151072D01*
X145012119Y-65151072D02*
X145092931Y-65124135D01*
X145092931Y-65124135D02*
X145146806Y-65124135D01*
X145146806Y-65124135D02*
X145227618Y-65151072D01*
X145227618Y-65151072D02*
X145362305Y-65231885D01*
X145362305Y-65231885D02*
X145496992Y-65366572D01*
X145496992Y-65366572D02*
X145577804Y-65501259D01*
X145577804Y-65501259D02*
X145604741Y-65582071D01*
X145604741Y-65582071D02*
X145604741Y-65635946D01*
X145604741Y-65635946D02*
X145577804Y-65716758D01*
X145577804Y-65716758D02*
X145523929Y-65770633D01*
X145523929Y-65770633D02*
X145443117Y-65797570D01*
X145443117Y-65797570D02*
X145389242Y-65797570D01*
X145389242Y-65797570D02*
X145308430Y-65770633D01*
X145308430Y-65770633D02*
X145173743Y-65689820D01*
X145173743Y-65689820D02*
X145039056Y-65555133D01*
X145039056Y-65555133D02*
X144958244Y-65420446D01*
X144958244Y-65420446D02*
X144931306Y-65339634D01*
X144931306Y-65339634D02*
X144931306Y-65285759D01*
X144931306Y-65285759D02*
X144958244Y-65204947D01*
X144042372Y-81414694D02*
X143961560Y-81441631D01*
X143961560Y-81441631D02*
X143880748Y-81522443D01*
X143880748Y-81522443D02*
X143826873Y-81630193D01*
X143826873Y-81630193D02*
X143826873Y-81737942D01*
X143826873Y-81737942D02*
X143853810Y-81818755D01*
X143853810Y-81818755D02*
X143934623Y-81953442D01*
X143934623Y-81953442D02*
X144015435Y-82034254D01*
X144015435Y-82034254D02*
X144150122Y-82115066D01*
X144150122Y-82115066D02*
X144230934Y-82142003D01*
X144230934Y-82142003D02*
X144338684Y-82142003D01*
X144338684Y-82142003D02*
X144446433Y-82088129D01*
X144446433Y-82088129D02*
X144500308Y-82034254D01*
X144500308Y-82034254D02*
X144554183Y-81926504D01*
X144554183Y-81926504D02*
X144554183Y-81872629D01*
X144554183Y-81872629D02*
X144365621Y-81684068D01*
X144365621Y-81684068D02*
X144257871Y-81791817D01*
X144850494Y-81684068D02*
X144284809Y-81118382D01*
X144284809Y-81118382D02*
X144500308Y-80902883D01*
X144500308Y-80902883D02*
X144581120Y-80875946D01*
X144581120Y-80875946D02*
X144634995Y-80875946D01*
X144634995Y-80875946D02*
X144715807Y-80902883D01*
X144715807Y-80902883D02*
X144796619Y-80983695D01*
X144796619Y-80983695D02*
X144823557Y-81064507D01*
X144823557Y-81064507D02*
X144823557Y-81118382D01*
X144823557Y-81118382D02*
X144796619Y-81199194D01*
X144796619Y-81199194D02*
X144581120Y-81414694D01*
X145119868Y-80283323D02*
X144850494Y-80552697D01*
X144850494Y-80552697D02*
X145092931Y-80849008D01*
X145092931Y-80849008D02*
X145092931Y-80795133D01*
X145092931Y-80795133D02*
X145119868Y-80714321D01*
X145119868Y-80714321D02*
X145254555Y-80579634D01*
X145254555Y-80579634D02*
X145335367Y-80552697D01*
X145335367Y-80552697D02*
X145389242Y-80552697D01*
X145389242Y-80552697D02*
X145470054Y-80579634D01*
X145470054Y-80579634D02*
X145604741Y-80714321D01*
X145604741Y-80714321D02*
X145631679Y-80795133D01*
X145631679Y-80795133D02*
X145631679Y-80849008D01*
X145631679Y-80849008D02*
X145604741Y-80929820D01*
X145604741Y-80929820D02*
X145470054Y-81064507D01*
X145470054Y-81064507D02*
X145389242Y-81091445D01*
X145389242Y-81091445D02*
X145335367Y-81091445D01*
X169615435Y-71281631D02*
X169534623Y-71308568D01*
X169534623Y-71308568D02*
X169453811Y-71389380D01*
X169453811Y-71389380D02*
X169399936Y-71497130D01*
X169399936Y-71497130D02*
X169399936Y-71604880D01*
X169399936Y-71604880D02*
X169426873Y-71685692D01*
X169426873Y-71685692D02*
X169507685Y-71820379D01*
X169507685Y-71820379D02*
X169588498Y-71901191D01*
X169588498Y-71901191D02*
X169723185Y-71982003D01*
X169723185Y-71982003D02*
X169803997Y-72008941D01*
X169803997Y-72008941D02*
X169911746Y-72008941D01*
X169911746Y-72008941D02*
X170019496Y-71955066D01*
X170019496Y-71955066D02*
X170073371Y-71901191D01*
X170073371Y-71901191D02*
X170127246Y-71793441D01*
X170127246Y-71793441D02*
X170127246Y-71739567D01*
X170127246Y-71739567D02*
X169938684Y-71551005D01*
X169938684Y-71551005D02*
X169830934Y-71658754D01*
X170423557Y-71551005D02*
X169857872Y-70985319D01*
X169857872Y-70985319D02*
X170746806Y-71227756D01*
X170746806Y-71227756D02*
X170181120Y-70662071D01*
X171016180Y-70958382D02*
X170450494Y-70392697D01*
X170450494Y-70392697D02*
X170585181Y-70258010D01*
X170585181Y-70258010D02*
X170692931Y-70204135D01*
X170692931Y-70204135D02*
X170800680Y-70204135D01*
X170800680Y-70204135D02*
X170881493Y-70231072D01*
X170881493Y-70231072D02*
X171016180Y-70311885D01*
X171016180Y-70311885D02*
X171096992Y-70392697D01*
X171096992Y-70392697D02*
X171177804Y-70527384D01*
X171177804Y-70527384D02*
X171204741Y-70608196D01*
X171204741Y-70608196D02*
X171204741Y-70715946D01*
X171204741Y-70715946D02*
X171150867Y-70823695D01*
X171150867Y-70823695D02*
X171016180Y-70958382D01*
X161433761Y-116707400D02*
X161548047Y-116745495D01*
X161548047Y-116745495D02*
X161738523Y-116745495D01*
X161738523Y-116745495D02*
X161814714Y-116707400D01*
X161814714Y-116707400D02*
X161852809Y-116669304D01*
X161852809Y-116669304D02*
X161890904Y-116593114D01*
X161890904Y-116593114D02*
X161890904Y-116516923D01*
X161890904Y-116516923D02*
X161852809Y-116440733D01*
X161852809Y-116440733D02*
X161814714Y-116402638D01*
X161814714Y-116402638D02*
X161738523Y-116364542D01*
X161738523Y-116364542D02*
X161586142Y-116326447D01*
X161586142Y-116326447D02*
X161509952Y-116288352D01*
X161509952Y-116288352D02*
X161471857Y-116250257D01*
X161471857Y-116250257D02*
X161433761Y-116174066D01*
X161433761Y-116174066D02*
X161433761Y-116097876D01*
X161433761Y-116097876D02*
X161471857Y-116021685D01*
X161471857Y-116021685D02*
X161509952Y-115983590D01*
X161509952Y-115983590D02*
X161586142Y-115945495D01*
X161586142Y-115945495D02*
X161776619Y-115945495D01*
X161776619Y-115945495D02*
X161890904Y-115983590D01*
X162157571Y-115945495D02*
X162348047Y-116745495D01*
X162348047Y-116745495D02*
X162500428Y-116174066D01*
X162500428Y-116174066D02*
X162652809Y-116745495D01*
X162652809Y-116745495D02*
X162843286Y-115945495D01*
X163148048Y-116745495D02*
X163148048Y-115945495D01*
X163148048Y-115945495D02*
X163338524Y-115945495D01*
X163338524Y-115945495D02*
X163452810Y-115983590D01*
X163452810Y-115983590D02*
X163529000Y-116059780D01*
X163529000Y-116059780D02*
X163567095Y-116135971D01*
X163567095Y-116135971D02*
X163605191Y-116288352D01*
X163605191Y-116288352D02*
X163605191Y-116402638D01*
X163605191Y-116402638D02*
X163567095Y-116555019D01*
X163567095Y-116555019D02*
X163529000Y-116631209D01*
X163529000Y-116631209D02*
X163452810Y-116707400D01*
X163452810Y-116707400D02*
X163338524Y-116745495D01*
X163338524Y-116745495D02*
X163148048Y-116745495D01*
X163948048Y-116745495D02*
X163948048Y-115945495D01*
X164481381Y-115945495D02*
X164633762Y-115945495D01*
X164633762Y-115945495D02*
X164709952Y-115983590D01*
X164709952Y-115983590D02*
X164786143Y-116059780D01*
X164786143Y-116059780D02*
X164824238Y-116212161D01*
X164824238Y-116212161D02*
X164824238Y-116478828D01*
X164824238Y-116478828D02*
X164786143Y-116631209D01*
X164786143Y-116631209D02*
X164709952Y-116707400D01*
X164709952Y-116707400D02*
X164633762Y-116745495D01*
X164633762Y-116745495D02*
X164481381Y-116745495D01*
X164481381Y-116745495D02*
X164405190Y-116707400D01*
X164405190Y-116707400D02*
X164329000Y-116631209D01*
X164329000Y-116631209D02*
X164290904Y-116478828D01*
X164290904Y-116478828D02*
X164290904Y-116212161D01*
X164290904Y-116212161D02*
X164329000Y-116059780D01*
X164329000Y-116059780D02*
X164405190Y-115983590D01*
X164405190Y-115983590D02*
X164481381Y-115945495D01*
X144042372Y-86494694D02*
X143961560Y-86521631D01*
X143961560Y-86521631D02*
X143880748Y-86602443D01*
X143880748Y-86602443D02*
X143826873Y-86710193D01*
X143826873Y-86710193D02*
X143826873Y-86817942D01*
X143826873Y-86817942D02*
X143853810Y-86898755D01*
X143853810Y-86898755D02*
X143934623Y-87033442D01*
X143934623Y-87033442D02*
X144015435Y-87114254D01*
X144015435Y-87114254D02*
X144150122Y-87195066D01*
X144150122Y-87195066D02*
X144230934Y-87222003D01*
X144230934Y-87222003D02*
X144338684Y-87222003D01*
X144338684Y-87222003D02*
X144446433Y-87168129D01*
X144446433Y-87168129D02*
X144500308Y-87114254D01*
X144500308Y-87114254D02*
X144554183Y-87006504D01*
X144554183Y-87006504D02*
X144554183Y-86952629D01*
X144554183Y-86952629D02*
X144365621Y-86764068D01*
X144365621Y-86764068D02*
X144257871Y-86871817D01*
X144850494Y-86764068D02*
X144284809Y-86198382D01*
X144284809Y-86198382D02*
X144500308Y-85982883D01*
X144500308Y-85982883D02*
X144581120Y-85955946D01*
X144581120Y-85955946D02*
X144634995Y-85955946D01*
X144634995Y-85955946D02*
X144715807Y-85982883D01*
X144715807Y-85982883D02*
X144796619Y-86063695D01*
X144796619Y-86063695D02*
X144823557Y-86144507D01*
X144823557Y-86144507D02*
X144823557Y-86198382D01*
X144823557Y-86198382D02*
X144796619Y-86279194D01*
X144796619Y-86279194D02*
X144581120Y-86494694D01*
X145092931Y-85390260D02*
X144985181Y-85498010D01*
X144985181Y-85498010D02*
X144958244Y-85578822D01*
X144958244Y-85578822D02*
X144958244Y-85632697D01*
X144958244Y-85632697D02*
X144985181Y-85767384D01*
X144985181Y-85767384D02*
X145065993Y-85902071D01*
X145065993Y-85902071D02*
X145281493Y-86117570D01*
X145281493Y-86117570D02*
X145362305Y-86144507D01*
X145362305Y-86144507D02*
X145416180Y-86144507D01*
X145416180Y-86144507D02*
X145496992Y-86117570D01*
X145496992Y-86117570D02*
X145604741Y-86009820D01*
X145604741Y-86009820D02*
X145631679Y-85929008D01*
X145631679Y-85929008D02*
X145631679Y-85875133D01*
X145631679Y-85875133D02*
X145604741Y-85794321D01*
X145604741Y-85794321D02*
X145470054Y-85659634D01*
X145470054Y-85659634D02*
X145389242Y-85632697D01*
X145389242Y-85632697D02*
X145335367Y-85632697D01*
X145335367Y-85632697D02*
X145254555Y-85659634D01*
X145254555Y-85659634D02*
X145146806Y-85767384D01*
X145146806Y-85767384D02*
X145119868Y-85848196D01*
X145119868Y-85848196D02*
X145119868Y-85902071D01*
X145119868Y-85902071D02*
X145146806Y-85982883D01*
X169626998Y-89304068D02*
X169546185Y-89331005D01*
X169546185Y-89331005D02*
X169465373Y-89411818D01*
X169465373Y-89411818D02*
X169411498Y-89519567D01*
X169411498Y-89519567D02*
X169411498Y-89627317D01*
X169411498Y-89627317D02*
X169438436Y-89708129D01*
X169438436Y-89708129D02*
X169519248Y-89842816D01*
X169519248Y-89842816D02*
X169600060Y-89923628D01*
X169600060Y-89923628D02*
X169734747Y-90004441D01*
X169734747Y-90004441D02*
X169815560Y-90031378D01*
X169815560Y-90031378D02*
X169923309Y-90031378D01*
X169923309Y-90031378D02*
X170031059Y-89977503D01*
X170031059Y-89977503D02*
X170084934Y-89923628D01*
X170084934Y-89923628D02*
X170138808Y-89815879D01*
X170138808Y-89815879D02*
X170138808Y-89762004D01*
X170138808Y-89762004D02*
X169950247Y-89573442D01*
X169950247Y-89573442D02*
X169842497Y-89681192D01*
X170435120Y-89573442D02*
X169869434Y-89007757D01*
X169869434Y-89007757D02*
X170084934Y-88792257D01*
X170084934Y-88792257D02*
X170165746Y-88765320D01*
X170165746Y-88765320D02*
X170219621Y-88765320D01*
X170219621Y-88765320D02*
X170300433Y-88792257D01*
X170300433Y-88792257D02*
X170381245Y-88873070D01*
X170381245Y-88873070D02*
X170408182Y-88953882D01*
X170408182Y-88953882D02*
X170408182Y-89007757D01*
X170408182Y-89007757D02*
X170381245Y-89088569D01*
X170381245Y-89088569D02*
X170165746Y-89304068D01*
X170462057Y-88522883D02*
X170462057Y-88469009D01*
X170462057Y-88469009D02*
X170488995Y-88388196D01*
X170488995Y-88388196D02*
X170623682Y-88253509D01*
X170623682Y-88253509D02*
X170704494Y-88226572D01*
X170704494Y-88226572D02*
X170758369Y-88226572D01*
X170758369Y-88226572D02*
X170839181Y-88253509D01*
X170839181Y-88253509D02*
X170893056Y-88307384D01*
X170893056Y-88307384D02*
X170946930Y-88415134D01*
X170946930Y-88415134D02*
X170946930Y-89061631D01*
X170946930Y-89061631D02*
X171297117Y-88711445D01*
X171216305Y-87660886D02*
X171108555Y-87768636D01*
X171108555Y-87768636D02*
X171081618Y-87849448D01*
X171081618Y-87849448D02*
X171081618Y-87903323D01*
X171081618Y-87903323D02*
X171108555Y-88038010D01*
X171108555Y-88038010D02*
X171189367Y-88172697D01*
X171189367Y-88172697D02*
X171404866Y-88388196D01*
X171404866Y-88388196D02*
X171485679Y-88415134D01*
X171485679Y-88415134D02*
X171539553Y-88415134D01*
X171539553Y-88415134D02*
X171620366Y-88388196D01*
X171620366Y-88388196D02*
X171728115Y-88280447D01*
X171728115Y-88280447D02*
X171755053Y-88199634D01*
X171755053Y-88199634D02*
X171755053Y-88145760D01*
X171755053Y-88145760D02*
X171728115Y-88064947D01*
X171728115Y-88064947D02*
X171593428Y-87930260D01*
X171593428Y-87930260D02*
X171512616Y-87903323D01*
X171512616Y-87903323D02*
X171458741Y-87903323D01*
X171458741Y-87903323D02*
X171377929Y-87930260D01*
X171377929Y-87930260D02*
X171270179Y-88038010D01*
X171270179Y-88038010D02*
X171243242Y-88118822D01*
X171243242Y-88118822D02*
X171243242Y-88172697D01*
X171243242Y-88172697D02*
X171270179Y-88253509D01*
X144042372Y-94114694D02*
X143961560Y-94141631D01*
X143961560Y-94141631D02*
X143880748Y-94222443D01*
X143880748Y-94222443D02*
X143826873Y-94330193D01*
X143826873Y-94330193D02*
X143826873Y-94437942D01*
X143826873Y-94437942D02*
X143853810Y-94518755D01*
X143853810Y-94518755D02*
X143934623Y-94653442D01*
X143934623Y-94653442D02*
X144015435Y-94734254D01*
X144015435Y-94734254D02*
X144150122Y-94815066D01*
X144150122Y-94815066D02*
X144230934Y-94842003D01*
X144230934Y-94842003D02*
X144338684Y-94842003D01*
X144338684Y-94842003D02*
X144446433Y-94788129D01*
X144446433Y-94788129D02*
X144500308Y-94734254D01*
X144500308Y-94734254D02*
X144554183Y-94626504D01*
X144554183Y-94626504D02*
X144554183Y-94572629D01*
X144554183Y-94572629D02*
X144365621Y-94384068D01*
X144365621Y-94384068D02*
X144257871Y-94491817D01*
X144850494Y-94384068D02*
X144284809Y-93818382D01*
X144284809Y-93818382D02*
X144500308Y-93602883D01*
X144500308Y-93602883D02*
X144581120Y-93575946D01*
X144581120Y-93575946D02*
X144634995Y-93575946D01*
X144634995Y-93575946D02*
X144715807Y-93602883D01*
X144715807Y-93602883D02*
X144796619Y-93683695D01*
X144796619Y-93683695D02*
X144823557Y-93764507D01*
X144823557Y-93764507D02*
X144823557Y-93818382D01*
X144823557Y-93818382D02*
X144796619Y-93899194D01*
X144796619Y-93899194D02*
X144581120Y-94114694D01*
X145443117Y-93791445D02*
X145550867Y-93683695D01*
X145550867Y-93683695D02*
X145577804Y-93602883D01*
X145577804Y-93602883D02*
X145577804Y-93549008D01*
X145577804Y-93549008D02*
X145550867Y-93414321D01*
X145550867Y-93414321D02*
X145470054Y-93279634D01*
X145470054Y-93279634D02*
X145254555Y-93064135D01*
X145254555Y-93064135D02*
X145173743Y-93037198D01*
X145173743Y-93037198D02*
X145119868Y-93037198D01*
X145119868Y-93037198D02*
X145039056Y-93064135D01*
X145039056Y-93064135D02*
X144931306Y-93171885D01*
X144931306Y-93171885D02*
X144904369Y-93252697D01*
X144904369Y-93252697D02*
X144904369Y-93306572D01*
X144904369Y-93306572D02*
X144931306Y-93387384D01*
X144931306Y-93387384D02*
X145065993Y-93522071D01*
X145065993Y-93522071D02*
X145146806Y-93549008D01*
X145146806Y-93549008D02*
X145200680Y-93549008D01*
X145200680Y-93549008D02*
X145281493Y-93522071D01*
X145281493Y-93522071D02*
X145389242Y-93414321D01*
X145389242Y-93414321D02*
X145416180Y-93333509D01*
X145416180Y-93333509D02*
X145416180Y-93279634D01*
X145416180Y-93279634D02*
X145389242Y-93198822D01*
X143372998Y-102004068D02*
X143292185Y-102031005D01*
X143292185Y-102031005D02*
X143211373Y-102111818D01*
X143211373Y-102111818D02*
X143157498Y-102219567D01*
X143157498Y-102219567D02*
X143157498Y-102327317D01*
X143157498Y-102327317D02*
X143184436Y-102408129D01*
X143184436Y-102408129D02*
X143265248Y-102542816D01*
X143265248Y-102542816D02*
X143346060Y-102623628D01*
X143346060Y-102623628D02*
X143480747Y-102704441D01*
X143480747Y-102704441D02*
X143561560Y-102731378D01*
X143561560Y-102731378D02*
X143669309Y-102731378D01*
X143669309Y-102731378D02*
X143777059Y-102677503D01*
X143777059Y-102677503D02*
X143830934Y-102623628D01*
X143830934Y-102623628D02*
X143884808Y-102515879D01*
X143884808Y-102515879D02*
X143884808Y-102462004D01*
X143884808Y-102462004D02*
X143696247Y-102273442D01*
X143696247Y-102273442D02*
X143588497Y-102381192D01*
X144181120Y-102273442D02*
X143615434Y-101707757D01*
X143615434Y-101707757D02*
X143830934Y-101492257D01*
X143830934Y-101492257D02*
X143911746Y-101465320D01*
X143911746Y-101465320D02*
X143965621Y-101465320D01*
X143965621Y-101465320D02*
X144046433Y-101492257D01*
X144046433Y-101492257D02*
X144127245Y-101573070D01*
X144127245Y-101573070D02*
X144154182Y-101653882D01*
X144154182Y-101653882D02*
X144154182Y-101707757D01*
X144154182Y-101707757D02*
X144127245Y-101788569D01*
X144127245Y-101788569D02*
X143911746Y-102004068D01*
X145043117Y-101411445D02*
X144719868Y-101734694D01*
X144881492Y-101573070D02*
X144315807Y-101007384D01*
X144315807Y-101007384D02*
X144342744Y-101142071D01*
X144342744Y-101142071D02*
X144342744Y-101249821D01*
X144342744Y-101249821D02*
X144315807Y-101330633D01*
X145581865Y-100872697D02*
X145258616Y-101195946D01*
X145420240Y-101034321D02*
X144854555Y-100468636D01*
X144854555Y-100468636D02*
X144881492Y-100603323D01*
X144881492Y-100603323D02*
X144881492Y-100711073D01*
X144881492Y-100711073D02*
X144854555Y-100791885D01*
X169626998Y-99474068D02*
X169546185Y-99501005D01*
X169546185Y-99501005D02*
X169465373Y-99581818D01*
X169465373Y-99581818D02*
X169411498Y-99689567D01*
X169411498Y-99689567D02*
X169411498Y-99797317D01*
X169411498Y-99797317D02*
X169438436Y-99878129D01*
X169438436Y-99878129D02*
X169519248Y-100012816D01*
X169519248Y-100012816D02*
X169600060Y-100093628D01*
X169600060Y-100093628D02*
X169734747Y-100174441D01*
X169734747Y-100174441D02*
X169815560Y-100201378D01*
X169815560Y-100201378D02*
X169923309Y-100201378D01*
X169923309Y-100201378D02*
X170031059Y-100147503D01*
X170031059Y-100147503D02*
X170084934Y-100093628D01*
X170084934Y-100093628D02*
X170138808Y-99985879D01*
X170138808Y-99985879D02*
X170138808Y-99932004D01*
X170138808Y-99932004D02*
X169950247Y-99743442D01*
X169950247Y-99743442D02*
X169842497Y-99851192D01*
X170435120Y-99743442D02*
X169869434Y-99177757D01*
X169869434Y-99177757D02*
X170084934Y-98962257D01*
X170084934Y-98962257D02*
X170165746Y-98935320D01*
X170165746Y-98935320D02*
X170219621Y-98935320D01*
X170219621Y-98935320D02*
X170300433Y-98962257D01*
X170300433Y-98962257D02*
X170381245Y-99043070D01*
X170381245Y-99043070D02*
X170408182Y-99123882D01*
X170408182Y-99123882D02*
X170408182Y-99177757D01*
X170408182Y-99177757D02*
X170381245Y-99258569D01*
X170381245Y-99258569D02*
X170165746Y-99474068D01*
X170462057Y-98692883D02*
X170462057Y-98639009D01*
X170462057Y-98639009D02*
X170488995Y-98558196D01*
X170488995Y-98558196D02*
X170623682Y-98423509D01*
X170623682Y-98423509D02*
X170704494Y-98396572D01*
X170704494Y-98396572D02*
X170758369Y-98396572D01*
X170758369Y-98396572D02*
X170839181Y-98423509D01*
X170839181Y-98423509D02*
X170893056Y-98477384D01*
X170893056Y-98477384D02*
X170946930Y-98585134D01*
X170946930Y-98585134D02*
X170946930Y-99231631D01*
X170946930Y-99231631D02*
X171297117Y-98881445D01*
X171835865Y-98342697D02*
X171512616Y-98665946D01*
X171674240Y-98504321D02*
X171108555Y-97938636D01*
X171108555Y-97938636D02*
X171135492Y-98073323D01*
X171135492Y-98073323D02*
X171135492Y-98181073D01*
X171135492Y-98181073D02*
X171108555Y-98261885D01*
X169626998Y-86774068D02*
X169546185Y-86801005D01*
X169546185Y-86801005D02*
X169465373Y-86881818D01*
X169465373Y-86881818D02*
X169411498Y-86989567D01*
X169411498Y-86989567D02*
X169411498Y-87097317D01*
X169411498Y-87097317D02*
X169438436Y-87178129D01*
X169438436Y-87178129D02*
X169519248Y-87312816D01*
X169519248Y-87312816D02*
X169600060Y-87393628D01*
X169600060Y-87393628D02*
X169734747Y-87474441D01*
X169734747Y-87474441D02*
X169815560Y-87501378D01*
X169815560Y-87501378D02*
X169923309Y-87501378D01*
X169923309Y-87501378D02*
X170031059Y-87447503D01*
X170031059Y-87447503D02*
X170084934Y-87393628D01*
X170084934Y-87393628D02*
X170138808Y-87285879D01*
X170138808Y-87285879D02*
X170138808Y-87232004D01*
X170138808Y-87232004D02*
X169950247Y-87043442D01*
X169950247Y-87043442D02*
X169842497Y-87151192D01*
X170435120Y-87043442D02*
X169869434Y-86477757D01*
X169869434Y-86477757D02*
X170084934Y-86262257D01*
X170084934Y-86262257D02*
X170165746Y-86235320D01*
X170165746Y-86235320D02*
X170219621Y-86235320D01*
X170219621Y-86235320D02*
X170300433Y-86262257D01*
X170300433Y-86262257D02*
X170381245Y-86343070D01*
X170381245Y-86343070D02*
X170408182Y-86423882D01*
X170408182Y-86423882D02*
X170408182Y-86477757D01*
X170408182Y-86477757D02*
X170381245Y-86558569D01*
X170381245Y-86558569D02*
X170165746Y-86774068D01*
X170462057Y-85992883D02*
X170462057Y-85939009D01*
X170462057Y-85939009D02*
X170488995Y-85858196D01*
X170488995Y-85858196D02*
X170623682Y-85723509D01*
X170623682Y-85723509D02*
X170704494Y-85696572D01*
X170704494Y-85696572D02*
X170758369Y-85696572D01*
X170758369Y-85696572D02*
X170839181Y-85723509D01*
X170839181Y-85723509D02*
X170893056Y-85777384D01*
X170893056Y-85777384D02*
X170946930Y-85885134D01*
X170946930Y-85885134D02*
X170946930Y-86531631D01*
X170946930Y-86531631D02*
X171297117Y-86181445D01*
X170919993Y-85427198D02*
X171297117Y-85050074D01*
X171297117Y-85050074D02*
X171620366Y-85858196D01*
X143518998Y-107084068D02*
X143438185Y-107111005D01*
X143438185Y-107111005D02*
X143357373Y-107191818D01*
X143357373Y-107191818D02*
X143303498Y-107299567D01*
X143303498Y-107299567D02*
X143303498Y-107407317D01*
X143303498Y-107407317D02*
X143330436Y-107488129D01*
X143330436Y-107488129D02*
X143411248Y-107622816D01*
X143411248Y-107622816D02*
X143492060Y-107703628D01*
X143492060Y-107703628D02*
X143626747Y-107784441D01*
X143626747Y-107784441D02*
X143707560Y-107811378D01*
X143707560Y-107811378D02*
X143815309Y-107811378D01*
X143815309Y-107811378D02*
X143923059Y-107757503D01*
X143923059Y-107757503D02*
X143976934Y-107703628D01*
X143976934Y-107703628D02*
X144030808Y-107595879D01*
X144030808Y-107595879D02*
X144030808Y-107542004D01*
X144030808Y-107542004D02*
X143842247Y-107353442D01*
X143842247Y-107353442D02*
X143734497Y-107461192D01*
X144327120Y-107353442D02*
X143761434Y-106787757D01*
X143761434Y-106787757D02*
X143976934Y-106572257D01*
X143976934Y-106572257D02*
X144057746Y-106545320D01*
X144057746Y-106545320D02*
X144111621Y-106545320D01*
X144111621Y-106545320D02*
X144192433Y-106572257D01*
X144192433Y-106572257D02*
X144273245Y-106653070D01*
X144273245Y-106653070D02*
X144300182Y-106733882D01*
X144300182Y-106733882D02*
X144300182Y-106787757D01*
X144300182Y-106787757D02*
X144273245Y-106868569D01*
X144273245Y-106868569D02*
X144057746Y-107084068D01*
X145189117Y-106491445D02*
X144865868Y-106814694D01*
X145027492Y-106653070D02*
X144461807Y-106087384D01*
X144461807Y-106087384D02*
X144488744Y-106222071D01*
X144488744Y-106222071D02*
X144488744Y-106329821D01*
X144488744Y-106329821D02*
X144461807Y-106410633D01*
X144811993Y-105737198D02*
X145162179Y-105387012D01*
X145162179Y-105387012D02*
X145189117Y-105791073D01*
X145189117Y-105791073D02*
X145269929Y-105710260D01*
X145269929Y-105710260D02*
X145350741Y-105683323D01*
X145350741Y-105683323D02*
X145404616Y-105683323D01*
X145404616Y-105683323D02*
X145485428Y-105710260D01*
X145485428Y-105710260D02*
X145620115Y-105844947D01*
X145620115Y-105844947D02*
X145647053Y-105925760D01*
X145647053Y-105925760D02*
X145647053Y-105979634D01*
X145647053Y-105979634D02*
X145620115Y-106060447D01*
X145620115Y-106060447D02*
X145458491Y-106222071D01*
X145458491Y-106222071D02*
X145377679Y-106249008D01*
X145377679Y-106249008D02*
X145323804Y-106249008D01*
X170219123Y-73374068D02*
X170569309Y-73023882D01*
X170569309Y-73023882D02*
X170596247Y-73427943D01*
X170596247Y-73427943D02*
X170677059Y-73347131D01*
X170677059Y-73347131D02*
X170757871Y-73320193D01*
X170757871Y-73320193D02*
X170811746Y-73320193D01*
X170811746Y-73320193D02*
X170892558Y-73347131D01*
X170892558Y-73347131D02*
X171027245Y-73481818D01*
X171027245Y-73481818D02*
X171054182Y-73562630D01*
X171054182Y-73562630D02*
X171054182Y-73616505D01*
X171054182Y-73616505D02*
X171027245Y-73697317D01*
X171027245Y-73697317D02*
X170865621Y-73858941D01*
X170865621Y-73858941D02*
X170784808Y-73885879D01*
X170784808Y-73885879D02*
X170730934Y-73885879D01*
X170730934Y-72862257D02*
X171485181Y-73239381D01*
X171485181Y-73239381D02*
X171108057Y-72485134D01*
X171242744Y-72350447D02*
X171592930Y-72000261D01*
X171592930Y-72000261D02*
X171619868Y-72404322D01*
X171619868Y-72404322D02*
X171700680Y-72323509D01*
X171700680Y-72323509D02*
X171781492Y-72296572D01*
X171781492Y-72296572D02*
X171835367Y-72296572D01*
X171835367Y-72296572D02*
X171916179Y-72323509D01*
X171916179Y-72323509D02*
X172050866Y-72458196D01*
X172050866Y-72458196D02*
X172077804Y-72539009D01*
X172077804Y-72539009D02*
X172077804Y-72592883D01*
X172077804Y-72592883D02*
X172050866Y-72673696D01*
X172050866Y-72673696D02*
X171889242Y-72835320D01*
X171889242Y-72835320D02*
X171808430Y-72862257D01*
X171808430Y-72862257D02*
X171754555Y-72862257D01*
X143372998Y-104544068D02*
X143292185Y-104571005D01*
X143292185Y-104571005D02*
X143211373Y-104651818D01*
X143211373Y-104651818D02*
X143157498Y-104759567D01*
X143157498Y-104759567D02*
X143157498Y-104867317D01*
X143157498Y-104867317D02*
X143184436Y-104948129D01*
X143184436Y-104948129D02*
X143265248Y-105082816D01*
X143265248Y-105082816D02*
X143346060Y-105163628D01*
X143346060Y-105163628D02*
X143480747Y-105244441D01*
X143480747Y-105244441D02*
X143561560Y-105271378D01*
X143561560Y-105271378D02*
X143669309Y-105271378D01*
X143669309Y-105271378D02*
X143777059Y-105217503D01*
X143777059Y-105217503D02*
X143830934Y-105163628D01*
X143830934Y-105163628D02*
X143884808Y-105055879D01*
X143884808Y-105055879D02*
X143884808Y-105002004D01*
X143884808Y-105002004D02*
X143696247Y-104813442D01*
X143696247Y-104813442D02*
X143588497Y-104921192D01*
X144181120Y-104813442D02*
X143615434Y-104247757D01*
X143615434Y-104247757D02*
X143830934Y-104032257D01*
X143830934Y-104032257D02*
X143911746Y-104005320D01*
X143911746Y-104005320D02*
X143965621Y-104005320D01*
X143965621Y-104005320D02*
X144046433Y-104032257D01*
X144046433Y-104032257D02*
X144127245Y-104113070D01*
X144127245Y-104113070D02*
X144154182Y-104193882D01*
X144154182Y-104193882D02*
X144154182Y-104247757D01*
X144154182Y-104247757D02*
X144127245Y-104328569D01*
X144127245Y-104328569D02*
X143911746Y-104544068D01*
X145043117Y-103951445D02*
X144719868Y-104274694D01*
X144881492Y-104113070D02*
X144315807Y-103547384D01*
X144315807Y-103547384D02*
X144342744Y-103682071D01*
X144342744Y-103682071D02*
X144342744Y-103789821D01*
X144342744Y-103789821D02*
X144315807Y-103870633D01*
X144746805Y-103224135D02*
X144746805Y-103170260D01*
X144746805Y-103170260D02*
X144773743Y-103089448D01*
X144773743Y-103089448D02*
X144908430Y-102954761D01*
X144908430Y-102954761D02*
X144989242Y-102927824D01*
X144989242Y-102927824D02*
X145043117Y-102927824D01*
X145043117Y-102927824D02*
X145123929Y-102954761D01*
X145123929Y-102954761D02*
X145177804Y-103008636D01*
X145177804Y-103008636D02*
X145231679Y-103116386D01*
X145231679Y-103116386D02*
X145231679Y-103762883D01*
X145231679Y-103762883D02*
X145581865Y-103412697D01*
X143942372Y-68704694D02*
X143861560Y-68731631D01*
X143861560Y-68731631D02*
X143780748Y-68812443D01*
X143780748Y-68812443D02*
X143726873Y-68920193D01*
X143726873Y-68920193D02*
X143726873Y-69027942D01*
X143726873Y-69027942D02*
X143753810Y-69108755D01*
X143753810Y-69108755D02*
X143834623Y-69243442D01*
X143834623Y-69243442D02*
X143915435Y-69324254D01*
X143915435Y-69324254D02*
X144050122Y-69405066D01*
X144050122Y-69405066D02*
X144130934Y-69432003D01*
X144130934Y-69432003D02*
X144238684Y-69432003D01*
X144238684Y-69432003D02*
X144346433Y-69378129D01*
X144346433Y-69378129D02*
X144400308Y-69324254D01*
X144400308Y-69324254D02*
X144454183Y-69216504D01*
X144454183Y-69216504D02*
X144454183Y-69162629D01*
X144454183Y-69162629D02*
X144265621Y-68974068D01*
X144265621Y-68974068D02*
X144157871Y-69081817D01*
X144750494Y-68974068D02*
X144184809Y-68408382D01*
X144184809Y-68408382D02*
X144400308Y-68192883D01*
X144400308Y-68192883D02*
X144481120Y-68165946D01*
X144481120Y-68165946D02*
X144534995Y-68165946D01*
X144534995Y-68165946D02*
X144615807Y-68192883D01*
X144615807Y-68192883D02*
X144696619Y-68273695D01*
X144696619Y-68273695D02*
X144723557Y-68354507D01*
X144723557Y-68354507D02*
X144723557Y-68408382D01*
X144723557Y-68408382D02*
X144696619Y-68489194D01*
X144696619Y-68489194D02*
X144481120Y-68704694D01*
X145612491Y-68112071D02*
X145289242Y-68435320D01*
X145450867Y-68273695D02*
X144885181Y-67708010D01*
X144885181Y-67708010D02*
X144912119Y-67842697D01*
X144912119Y-67842697D02*
X144912119Y-67950446D01*
X144912119Y-67950446D02*
X144885181Y-68031259D01*
X169626998Y-107084068D02*
X169546185Y-107111005D01*
X169546185Y-107111005D02*
X169465373Y-107191818D01*
X169465373Y-107191818D02*
X169411498Y-107299567D01*
X169411498Y-107299567D02*
X169411498Y-107407317D01*
X169411498Y-107407317D02*
X169438436Y-107488129D01*
X169438436Y-107488129D02*
X169519248Y-107622816D01*
X169519248Y-107622816D02*
X169600060Y-107703628D01*
X169600060Y-107703628D02*
X169734747Y-107784441D01*
X169734747Y-107784441D02*
X169815560Y-107811378D01*
X169815560Y-107811378D02*
X169923309Y-107811378D01*
X169923309Y-107811378D02*
X170031059Y-107757503D01*
X170031059Y-107757503D02*
X170084934Y-107703628D01*
X170084934Y-107703628D02*
X170138808Y-107595879D01*
X170138808Y-107595879D02*
X170138808Y-107542004D01*
X170138808Y-107542004D02*
X169950247Y-107353442D01*
X169950247Y-107353442D02*
X169842497Y-107461192D01*
X170435120Y-107353442D02*
X169869434Y-106787757D01*
X169869434Y-106787757D02*
X170084934Y-106572257D01*
X170084934Y-106572257D02*
X170165746Y-106545320D01*
X170165746Y-106545320D02*
X170219621Y-106545320D01*
X170219621Y-106545320D02*
X170300433Y-106572257D01*
X170300433Y-106572257D02*
X170381245Y-106653070D01*
X170381245Y-106653070D02*
X170408182Y-106733882D01*
X170408182Y-106733882D02*
X170408182Y-106787757D01*
X170408182Y-106787757D02*
X170381245Y-106868569D01*
X170381245Y-106868569D02*
X170165746Y-107084068D01*
X171297117Y-106491445D02*
X170973868Y-106814694D01*
X171135492Y-106653070D02*
X170569807Y-106087384D01*
X170569807Y-106087384D02*
X170596744Y-106222071D01*
X170596744Y-106222071D02*
X170596744Y-106329821D01*
X170596744Y-106329821D02*
X170569807Y-106410633D01*
X171297117Y-105844947D02*
X171216305Y-105871885D01*
X171216305Y-105871885D02*
X171162430Y-105871885D01*
X171162430Y-105871885D02*
X171081618Y-105844947D01*
X171081618Y-105844947D02*
X171054680Y-105818010D01*
X171054680Y-105818010D02*
X171027743Y-105737198D01*
X171027743Y-105737198D02*
X171027743Y-105683323D01*
X171027743Y-105683323D02*
X171054680Y-105602511D01*
X171054680Y-105602511D02*
X171162430Y-105494761D01*
X171162430Y-105494761D02*
X171243242Y-105467824D01*
X171243242Y-105467824D02*
X171297117Y-105467824D01*
X171297117Y-105467824D02*
X171377929Y-105494761D01*
X171377929Y-105494761D02*
X171404866Y-105521699D01*
X171404866Y-105521699D02*
X171431804Y-105602511D01*
X171431804Y-105602511D02*
X171431804Y-105656386D01*
X171431804Y-105656386D02*
X171404866Y-105737198D01*
X171404866Y-105737198D02*
X171297117Y-105844947D01*
X171297117Y-105844947D02*
X171270179Y-105925760D01*
X171270179Y-105925760D02*
X171270179Y-105979634D01*
X171270179Y-105979634D02*
X171297117Y-106060447D01*
X171297117Y-106060447D02*
X171404866Y-106168196D01*
X171404866Y-106168196D02*
X171485679Y-106195134D01*
X171485679Y-106195134D02*
X171539553Y-106195134D01*
X171539553Y-106195134D02*
X171620366Y-106168196D01*
X171620366Y-106168196D02*
X171728115Y-106060447D01*
X171728115Y-106060447D02*
X171755053Y-105979634D01*
X171755053Y-105979634D02*
X171755053Y-105925760D01*
X171755053Y-105925760D02*
X171728115Y-105844947D01*
X171728115Y-105844947D02*
X171620366Y-105737198D01*
X171620366Y-105737198D02*
X171539553Y-105710260D01*
X171539553Y-105710260D02*
X171485679Y-105710260D01*
X171485679Y-105710260D02*
X171404866Y-105737198D01*
X169482406Y-66710785D02*
X170236653Y-67087909D01*
X170236653Y-67087909D02*
X169859529Y-66333662D01*
X170506027Y-66225912D02*
X170613776Y-66172038D01*
X170613776Y-66172038D02*
X170667651Y-66172038D01*
X170667651Y-66172038D02*
X170748463Y-66198975D01*
X170748463Y-66198975D02*
X170829276Y-66279787D01*
X170829276Y-66279787D02*
X170856213Y-66360599D01*
X170856213Y-66360599D02*
X170856213Y-66414474D01*
X170856213Y-66414474D02*
X170829276Y-66495286D01*
X170829276Y-66495286D02*
X170613776Y-66710786D01*
X170613776Y-66710786D02*
X170048091Y-66145100D01*
X170048091Y-66145100D02*
X170236653Y-65956538D01*
X170236653Y-65956538D02*
X170317465Y-65929601D01*
X170317465Y-65929601D02*
X170371340Y-65929601D01*
X170371340Y-65929601D02*
X170452152Y-65956538D01*
X170452152Y-65956538D02*
X170506027Y-66010413D01*
X170506027Y-66010413D02*
X170532964Y-66091225D01*
X170532964Y-66091225D02*
X170532964Y-66145100D01*
X170532964Y-66145100D02*
X170506027Y-66225912D01*
X170506027Y-66225912D02*
X170317465Y-66414474D01*
X170613776Y-65579415D02*
X171071712Y-66037351D01*
X171071712Y-66037351D02*
X171152524Y-66064288D01*
X171152524Y-66064288D02*
X171206399Y-66064288D01*
X171206399Y-66064288D02*
X171287211Y-66037351D01*
X171287211Y-66037351D02*
X171394961Y-65929601D01*
X171394961Y-65929601D02*
X171421898Y-65848789D01*
X171421898Y-65848789D02*
X171421898Y-65794914D01*
X171421898Y-65794914D02*
X171394961Y-65714102D01*
X171394961Y-65714102D02*
X170937025Y-65256166D01*
X171718210Y-65552477D02*
X171825959Y-65498603D01*
X171825959Y-65498603D02*
X171960646Y-65363916D01*
X171960646Y-65363916D02*
X171987584Y-65283103D01*
X171987584Y-65283103D02*
X171987584Y-65229229D01*
X171987584Y-65229229D02*
X171960646Y-65148416D01*
X171960646Y-65148416D02*
X171906771Y-65094542D01*
X171906771Y-65094542D02*
X171825959Y-65067604D01*
X171825959Y-65067604D02*
X171772084Y-65067604D01*
X171772084Y-65067604D02*
X171691272Y-65094542D01*
X171691272Y-65094542D02*
X171556585Y-65175354D01*
X171556585Y-65175354D02*
X171475773Y-65202291D01*
X171475773Y-65202291D02*
X171421898Y-65202291D01*
X171421898Y-65202291D02*
X171341086Y-65175354D01*
X171341086Y-65175354D02*
X171287211Y-65121479D01*
X171287211Y-65121479D02*
X171260274Y-65040667D01*
X171260274Y-65040667D02*
X171260274Y-64986792D01*
X171260274Y-64986792D02*
X171287211Y-64905980D01*
X171287211Y-64905980D02*
X171421898Y-64771293D01*
X171421898Y-64771293D02*
X171529648Y-64717418D01*
X143518998Y-99464068D02*
X143438185Y-99491005D01*
X143438185Y-99491005D02*
X143357373Y-99571818D01*
X143357373Y-99571818D02*
X143303498Y-99679567D01*
X143303498Y-99679567D02*
X143303498Y-99787317D01*
X143303498Y-99787317D02*
X143330436Y-99868129D01*
X143330436Y-99868129D02*
X143411248Y-100002816D01*
X143411248Y-100002816D02*
X143492060Y-100083628D01*
X143492060Y-100083628D02*
X143626747Y-100164441D01*
X143626747Y-100164441D02*
X143707560Y-100191378D01*
X143707560Y-100191378D02*
X143815309Y-100191378D01*
X143815309Y-100191378D02*
X143923059Y-100137503D01*
X143923059Y-100137503D02*
X143976934Y-100083628D01*
X143976934Y-100083628D02*
X144030808Y-99975879D01*
X144030808Y-99975879D02*
X144030808Y-99922004D01*
X144030808Y-99922004D02*
X143842247Y-99733442D01*
X143842247Y-99733442D02*
X143734497Y-99841192D01*
X144327120Y-99733442D02*
X143761434Y-99167757D01*
X143761434Y-99167757D02*
X143976934Y-98952257D01*
X143976934Y-98952257D02*
X144057746Y-98925320D01*
X144057746Y-98925320D02*
X144111621Y-98925320D01*
X144111621Y-98925320D02*
X144192433Y-98952257D01*
X144192433Y-98952257D02*
X144273245Y-99033070D01*
X144273245Y-99033070D02*
X144300182Y-99113882D01*
X144300182Y-99113882D02*
X144300182Y-99167757D01*
X144300182Y-99167757D02*
X144273245Y-99248569D01*
X144273245Y-99248569D02*
X144057746Y-99464068D01*
X145189117Y-98871445D02*
X144865868Y-99194694D01*
X145027492Y-99033070D02*
X144461807Y-98467384D01*
X144461807Y-98467384D02*
X144488744Y-98602071D01*
X144488744Y-98602071D02*
X144488744Y-98709821D01*
X144488744Y-98709821D02*
X144461807Y-98790633D01*
X144973618Y-97955573D02*
X145027492Y-97901699D01*
X145027492Y-97901699D02*
X145108305Y-97874761D01*
X145108305Y-97874761D02*
X145162179Y-97874761D01*
X145162179Y-97874761D02*
X145242992Y-97901699D01*
X145242992Y-97901699D02*
X145377679Y-97982511D01*
X145377679Y-97982511D02*
X145512366Y-98117198D01*
X145512366Y-98117198D02*
X145593178Y-98251885D01*
X145593178Y-98251885D02*
X145620115Y-98332697D01*
X145620115Y-98332697D02*
X145620115Y-98386572D01*
X145620115Y-98386572D02*
X145593178Y-98467384D01*
X145593178Y-98467384D02*
X145539303Y-98521259D01*
X145539303Y-98521259D02*
X145458491Y-98548196D01*
X145458491Y-98548196D02*
X145404616Y-98548196D01*
X145404616Y-98548196D02*
X145323804Y-98521259D01*
X145323804Y-98521259D02*
X145189117Y-98440447D01*
X145189117Y-98440447D02*
X145054430Y-98305760D01*
X145054430Y-98305760D02*
X144973618Y-98171073D01*
X144973618Y-98171073D02*
X144946680Y-98090260D01*
X144946680Y-98090260D02*
X144946680Y-98036386D01*
X144946680Y-98036386D02*
X144973618Y-97955573D01*
X169680873Y-84924440D02*
X169950247Y-84655066D01*
X169788623Y-85139939D02*
X169411499Y-84385692D01*
X169411499Y-84385692D02*
X170165746Y-84762815D01*
X170111871Y-83739194D02*
X170031059Y-83766132D01*
X170031059Y-83766132D02*
X169950247Y-83846944D01*
X169950247Y-83846944D02*
X169896372Y-83954694D01*
X169896372Y-83954694D02*
X169896372Y-84062443D01*
X169896372Y-84062443D02*
X169923310Y-84143255D01*
X169923310Y-84143255D02*
X170004122Y-84277942D01*
X170004122Y-84277942D02*
X170084934Y-84358755D01*
X170084934Y-84358755D02*
X170219621Y-84439567D01*
X170219621Y-84439567D02*
X170300433Y-84466504D01*
X170300433Y-84466504D02*
X170408183Y-84466504D01*
X170408183Y-84466504D02*
X170515932Y-84412629D01*
X170515932Y-84412629D02*
X170569807Y-84358755D01*
X170569807Y-84358755D02*
X170623682Y-84251005D01*
X170623682Y-84251005D02*
X170623682Y-84197130D01*
X170623682Y-84197130D02*
X170435120Y-84008568D01*
X170435120Y-84008568D02*
X170327371Y-84116318D01*
X170919993Y-84008568D02*
X170354308Y-83442883D01*
X170354308Y-83442883D02*
X171243242Y-83685320D01*
X171243242Y-83685320D02*
X170677557Y-83119634D01*
X171512616Y-83415946D02*
X170946931Y-82850260D01*
X170946931Y-82850260D02*
X171081618Y-82715573D01*
X171081618Y-82715573D02*
X171189367Y-82661698D01*
X171189367Y-82661698D02*
X171297117Y-82661698D01*
X171297117Y-82661698D02*
X171377929Y-82688636D01*
X171377929Y-82688636D02*
X171512616Y-82769448D01*
X171512616Y-82769448D02*
X171593428Y-82850260D01*
X171593428Y-82850260D02*
X171674241Y-82984947D01*
X171674241Y-82984947D02*
X171701178Y-83065760D01*
X171701178Y-83065760D02*
X171701178Y-83173509D01*
X171701178Y-83173509D02*
X171647303Y-83281259D01*
X171647303Y-83281259D02*
X171512616Y-83415946D01*
X144042372Y-91574694D02*
X143961560Y-91601631D01*
X143961560Y-91601631D02*
X143880748Y-91682443D01*
X143880748Y-91682443D02*
X143826873Y-91790193D01*
X143826873Y-91790193D02*
X143826873Y-91897942D01*
X143826873Y-91897942D02*
X143853810Y-91978755D01*
X143853810Y-91978755D02*
X143934623Y-92113442D01*
X143934623Y-92113442D02*
X144015435Y-92194254D01*
X144015435Y-92194254D02*
X144150122Y-92275066D01*
X144150122Y-92275066D02*
X144230934Y-92302003D01*
X144230934Y-92302003D02*
X144338684Y-92302003D01*
X144338684Y-92302003D02*
X144446433Y-92248129D01*
X144446433Y-92248129D02*
X144500308Y-92194254D01*
X144500308Y-92194254D02*
X144554183Y-92086504D01*
X144554183Y-92086504D02*
X144554183Y-92032629D01*
X144554183Y-92032629D02*
X144365621Y-91844068D01*
X144365621Y-91844068D02*
X144257871Y-91951817D01*
X144850494Y-91844068D02*
X144284809Y-91278382D01*
X144284809Y-91278382D02*
X144500308Y-91062883D01*
X144500308Y-91062883D02*
X144581120Y-91035946D01*
X144581120Y-91035946D02*
X144634995Y-91035946D01*
X144634995Y-91035946D02*
X144715807Y-91062883D01*
X144715807Y-91062883D02*
X144796619Y-91143695D01*
X144796619Y-91143695D02*
X144823557Y-91224507D01*
X144823557Y-91224507D02*
X144823557Y-91278382D01*
X144823557Y-91278382D02*
X144796619Y-91359194D01*
X144796619Y-91359194D02*
X144581120Y-91574694D01*
X145173743Y-90874321D02*
X145092931Y-90901259D01*
X145092931Y-90901259D02*
X145039056Y-90901259D01*
X145039056Y-90901259D02*
X144958244Y-90874321D01*
X144958244Y-90874321D02*
X144931306Y-90847384D01*
X144931306Y-90847384D02*
X144904369Y-90766572D01*
X144904369Y-90766572D02*
X144904369Y-90712697D01*
X144904369Y-90712697D02*
X144931306Y-90631885D01*
X144931306Y-90631885D02*
X145039056Y-90524135D01*
X145039056Y-90524135D02*
X145119868Y-90497198D01*
X145119868Y-90497198D02*
X145173743Y-90497198D01*
X145173743Y-90497198D02*
X145254555Y-90524135D01*
X145254555Y-90524135D02*
X145281493Y-90551072D01*
X145281493Y-90551072D02*
X145308430Y-90631885D01*
X145308430Y-90631885D02*
X145308430Y-90685759D01*
X145308430Y-90685759D02*
X145281493Y-90766572D01*
X145281493Y-90766572D02*
X145173743Y-90874321D01*
X145173743Y-90874321D02*
X145146806Y-90955133D01*
X145146806Y-90955133D02*
X145146806Y-91009008D01*
X145146806Y-91009008D02*
X145173743Y-91089820D01*
X145173743Y-91089820D02*
X145281493Y-91197570D01*
X145281493Y-91197570D02*
X145362305Y-91224507D01*
X145362305Y-91224507D02*
X145416180Y-91224507D01*
X145416180Y-91224507D02*
X145496992Y-91197570D01*
X145496992Y-91197570D02*
X145604741Y-91089820D01*
X145604741Y-91089820D02*
X145631679Y-91009008D01*
X145631679Y-91009008D02*
X145631679Y-90955133D01*
X145631679Y-90955133D02*
X145604741Y-90874321D01*
X145604741Y-90874321D02*
X145496992Y-90766572D01*
X145496992Y-90766572D02*
X145416180Y-90739634D01*
X145416180Y-90739634D02*
X145362305Y-90739634D01*
X145362305Y-90739634D02*
X145281493Y-90766572D01*
X150019475Y-116707400D02*
X150133761Y-116745495D01*
X150133761Y-116745495D02*
X150324237Y-116745495D01*
X150324237Y-116745495D02*
X150400428Y-116707400D01*
X150400428Y-116707400D02*
X150438523Y-116669304D01*
X150438523Y-116669304D02*
X150476618Y-116593114D01*
X150476618Y-116593114D02*
X150476618Y-116516923D01*
X150476618Y-116516923D02*
X150438523Y-116440733D01*
X150438523Y-116440733D02*
X150400428Y-116402638D01*
X150400428Y-116402638D02*
X150324237Y-116364542D01*
X150324237Y-116364542D02*
X150171856Y-116326447D01*
X150171856Y-116326447D02*
X150095666Y-116288352D01*
X150095666Y-116288352D02*
X150057571Y-116250257D01*
X150057571Y-116250257D02*
X150019475Y-116174066D01*
X150019475Y-116174066D02*
X150019475Y-116097876D01*
X150019475Y-116097876D02*
X150057571Y-116021685D01*
X150057571Y-116021685D02*
X150095666Y-115983590D01*
X150095666Y-115983590D02*
X150171856Y-115945495D01*
X150171856Y-115945495D02*
X150362333Y-115945495D01*
X150362333Y-115945495D02*
X150476618Y-115983590D01*
X150743285Y-115945495D02*
X150933761Y-116745495D01*
X150933761Y-116745495D02*
X151086142Y-116174066D01*
X151086142Y-116174066D02*
X151238523Y-116745495D01*
X151238523Y-116745495D02*
X151429000Y-115945495D01*
X152190905Y-116669304D02*
X152152809Y-116707400D01*
X152152809Y-116707400D02*
X152038524Y-116745495D01*
X152038524Y-116745495D02*
X151962333Y-116745495D01*
X151962333Y-116745495D02*
X151848047Y-116707400D01*
X151848047Y-116707400D02*
X151771857Y-116631209D01*
X151771857Y-116631209D02*
X151733762Y-116555019D01*
X151733762Y-116555019D02*
X151695666Y-116402638D01*
X151695666Y-116402638D02*
X151695666Y-116288352D01*
X151695666Y-116288352D02*
X151733762Y-116135971D01*
X151733762Y-116135971D02*
X151771857Y-116059780D01*
X151771857Y-116059780D02*
X151848047Y-115983590D01*
X151848047Y-115983590D02*
X151962333Y-115945495D01*
X151962333Y-115945495D02*
X152038524Y-115945495D01*
X152038524Y-115945495D02*
X152152809Y-115983590D01*
X152152809Y-115983590D02*
X152190905Y-116021685D01*
X152914714Y-116745495D02*
X152533762Y-116745495D01*
X152533762Y-116745495D02*
X152533762Y-115945495D01*
X153181381Y-116745495D02*
X153181381Y-115945495D01*
X153638524Y-116745495D02*
X153295666Y-116288352D01*
X153638524Y-115945495D02*
X153181381Y-116402638D01*
X144042372Y-78874694D02*
X143961560Y-78901631D01*
X143961560Y-78901631D02*
X143880748Y-78982443D01*
X143880748Y-78982443D02*
X143826873Y-79090193D01*
X143826873Y-79090193D02*
X143826873Y-79197942D01*
X143826873Y-79197942D02*
X143853810Y-79278755D01*
X143853810Y-79278755D02*
X143934623Y-79413442D01*
X143934623Y-79413442D02*
X144015435Y-79494254D01*
X144015435Y-79494254D02*
X144150122Y-79575066D01*
X144150122Y-79575066D02*
X144230934Y-79602003D01*
X144230934Y-79602003D02*
X144338684Y-79602003D01*
X144338684Y-79602003D02*
X144446433Y-79548129D01*
X144446433Y-79548129D02*
X144500308Y-79494254D01*
X144500308Y-79494254D02*
X144554183Y-79386504D01*
X144554183Y-79386504D02*
X144554183Y-79332629D01*
X144554183Y-79332629D02*
X144365621Y-79144068D01*
X144365621Y-79144068D02*
X144257871Y-79251817D01*
X144850494Y-79144068D02*
X144284809Y-78578382D01*
X144284809Y-78578382D02*
X144500308Y-78362883D01*
X144500308Y-78362883D02*
X144581120Y-78335946D01*
X144581120Y-78335946D02*
X144634995Y-78335946D01*
X144634995Y-78335946D02*
X144715807Y-78362883D01*
X144715807Y-78362883D02*
X144796619Y-78443695D01*
X144796619Y-78443695D02*
X144823557Y-78524507D01*
X144823557Y-78524507D02*
X144823557Y-78578382D01*
X144823557Y-78578382D02*
X144796619Y-78659194D01*
X144796619Y-78659194D02*
X144581120Y-78874694D01*
X145281493Y-77958822D02*
X145658616Y-78335946D01*
X144931306Y-77878010D02*
X145200680Y-78416758D01*
X145200680Y-78416758D02*
X145550867Y-78066572D01*
X144015435Y-83981631D02*
X143934623Y-84008568D01*
X143934623Y-84008568D02*
X143853811Y-84089380D01*
X143853811Y-84089380D02*
X143799936Y-84197130D01*
X143799936Y-84197130D02*
X143799936Y-84304880D01*
X143799936Y-84304880D02*
X143826873Y-84385692D01*
X143826873Y-84385692D02*
X143907685Y-84520379D01*
X143907685Y-84520379D02*
X143988498Y-84601191D01*
X143988498Y-84601191D02*
X144123185Y-84682003D01*
X144123185Y-84682003D02*
X144203997Y-84708941D01*
X144203997Y-84708941D02*
X144311746Y-84708941D01*
X144311746Y-84708941D02*
X144419496Y-84655066D01*
X144419496Y-84655066D02*
X144473371Y-84601191D01*
X144473371Y-84601191D02*
X144527246Y-84493441D01*
X144527246Y-84493441D02*
X144527246Y-84439567D01*
X144527246Y-84439567D02*
X144338684Y-84251005D01*
X144338684Y-84251005D02*
X144230934Y-84358754D01*
X144823557Y-84251005D02*
X144257872Y-83685319D01*
X144257872Y-83685319D02*
X145146806Y-83927756D01*
X145146806Y-83927756D02*
X144581120Y-83362071D01*
X145416180Y-83658382D02*
X144850494Y-83092697D01*
X144850494Y-83092697D02*
X144985181Y-82958010D01*
X144985181Y-82958010D02*
X145092931Y-82904135D01*
X145092931Y-82904135D02*
X145200680Y-82904135D01*
X145200680Y-82904135D02*
X145281493Y-82931072D01*
X145281493Y-82931072D02*
X145416180Y-83011885D01*
X145416180Y-83011885D02*
X145496992Y-83092697D01*
X145496992Y-83092697D02*
X145577804Y-83227384D01*
X145577804Y-83227384D02*
X145604741Y-83308196D01*
X145604741Y-83308196D02*
X145604741Y-83415946D01*
X145604741Y-83415946D02*
X145550867Y-83523695D01*
X145550867Y-83523695D02*
X145416180Y-83658382D01*
X170367651Y-92126910D02*
X169909716Y-92046098D01*
X170044403Y-92450159D02*
X169478717Y-91884474D01*
X169478717Y-91884474D02*
X169694216Y-91668975D01*
X169694216Y-91668975D02*
X169775029Y-91642037D01*
X169775029Y-91642037D02*
X169828903Y-91642037D01*
X169828903Y-91642037D02*
X169909716Y-91668975D01*
X169909716Y-91668975D02*
X169990528Y-91749787D01*
X169990528Y-91749787D02*
X170017465Y-91830599D01*
X170017465Y-91830599D02*
X170017465Y-91884474D01*
X170017465Y-91884474D02*
X169990528Y-91965286D01*
X169990528Y-91965286D02*
X169775029Y-92180785D01*
X170044403Y-91318788D02*
X170502338Y-91776724D01*
X170502338Y-91776724D02*
X170583151Y-91803662D01*
X170583151Y-91803662D02*
X170637025Y-91803662D01*
X170637025Y-91803662D02*
X170717838Y-91776724D01*
X170717838Y-91776724D02*
X170825587Y-91668975D01*
X170825587Y-91668975D02*
X170852525Y-91588162D01*
X170852525Y-91588162D02*
X170852525Y-91534288D01*
X170852525Y-91534288D02*
X170825587Y-91453475D01*
X170825587Y-91453475D02*
X170367651Y-90995540D01*
X171202711Y-91291851D02*
X170637025Y-90726166D01*
X170637025Y-90726166D02*
X171525959Y-90968602D01*
X171525959Y-90968602D02*
X170960274Y-90402917D01*
X169449749Y-69253442D02*
X170203996Y-69630566D01*
X170203996Y-69630566D02*
X169826873Y-68876318D01*
X170527245Y-69253442D02*
X170634995Y-69199567D01*
X170634995Y-69199567D02*
X170769682Y-69064880D01*
X170769682Y-69064880D02*
X170796619Y-68984068D01*
X170796619Y-68984068D02*
X170796619Y-68930193D01*
X170796619Y-68930193D02*
X170769682Y-68849381D01*
X170769682Y-68849381D02*
X170715807Y-68795506D01*
X170715807Y-68795506D02*
X170634995Y-68768569D01*
X170634995Y-68768569D02*
X170581120Y-68768569D01*
X170581120Y-68768569D02*
X170500308Y-68795506D01*
X170500308Y-68795506D02*
X170365621Y-68876318D01*
X170365621Y-68876318D02*
X170284808Y-68903256D01*
X170284808Y-68903256D02*
X170230934Y-68903256D01*
X170230934Y-68903256D02*
X170150121Y-68876318D01*
X170150121Y-68876318D02*
X170096247Y-68822444D01*
X170096247Y-68822444D02*
X170069309Y-68741631D01*
X170069309Y-68741631D02*
X170069309Y-68687757D01*
X170069309Y-68687757D02*
X170096247Y-68606944D01*
X170096247Y-68606944D02*
X170230934Y-68472257D01*
X170230934Y-68472257D02*
X170338683Y-68418383D01*
X170958244Y-68337570D02*
X171227618Y-68606944D01*
X170473370Y-68229821D02*
X170958244Y-68337570D01*
X170958244Y-68337570D02*
X170850494Y-67852697D01*
X171550866Y-68229821D02*
X171658616Y-68175946D01*
X171658616Y-68175946D02*
X171793303Y-68041259D01*
X171793303Y-68041259D02*
X171820240Y-67960447D01*
X171820240Y-67960447D02*
X171820240Y-67906572D01*
X171820240Y-67906572D02*
X171793303Y-67825760D01*
X171793303Y-67825760D02*
X171739428Y-67771885D01*
X171739428Y-67771885D02*
X171658616Y-67744948D01*
X171658616Y-67744948D02*
X171604741Y-67744948D01*
X171604741Y-67744948D02*
X171523929Y-67771885D01*
X171523929Y-67771885D02*
X171389242Y-67852697D01*
X171389242Y-67852697D02*
X171308430Y-67879635D01*
X171308430Y-67879635D02*
X171254555Y-67879635D01*
X171254555Y-67879635D02*
X171173743Y-67852697D01*
X171173743Y-67852697D02*
X171119868Y-67798822D01*
X171119868Y-67798822D02*
X171092930Y-67718010D01*
X171092930Y-67718010D02*
X171092930Y-67664135D01*
X171092930Y-67664135D02*
X171119868Y-67583323D01*
X171119868Y-67583323D02*
X171254555Y-67448636D01*
X171254555Y-67448636D02*
X171362304Y-67394761D01*
X150197333Y-126244019D02*
X149721143Y-126244019D01*
X149721143Y-126244019D02*
X149721143Y-125244019D01*
X150435429Y-125244019D02*
X151054476Y-125244019D01*
X151054476Y-125244019D02*
X150721143Y-125624971D01*
X150721143Y-125624971D02*
X150864000Y-125624971D01*
X150864000Y-125624971D02*
X150959238Y-125672590D01*
X150959238Y-125672590D02*
X151006857Y-125720209D01*
X151006857Y-125720209D02*
X151054476Y-125815447D01*
X151054476Y-125815447D02*
X151054476Y-126053542D01*
X151054476Y-126053542D02*
X151006857Y-126148780D01*
X151006857Y-126148780D02*
X150959238Y-126196400D01*
X150959238Y-126196400D02*
X150864000Y-126244019D01*
X150864000Y-126244019D02*
X150578286Y-126244019D01*
X150578286Y-126244019D02*
X150483048Y-126196400D01*
X150483048Y-126196400D02*
X150435429Y-126148780D01*
D11*
%TO.C,J3*%
X117911000Y-80517500D02*
X117911000Y-74957500D01*
X117911000Y-64547500D02*
X117911000Y-72157500D01*
X101226000Y-80517500D02*
X117911000Y-80517500D01*
X101226000Y-64547500D02*
X117866000Y-64547500D01*
X101181000Y-80517500D02*
X101181000Y-74957500D01*
X101181000Y-64547500D02*
X101181000Y-72157500D01*
X100986000Y-71957500D02*
X100486000Y-72457500D01*
X100486000Y-72457500D02*
X100486000Y-71457500D01*
X100486000Y-71457500D02*
X100986000Y-71957500D01*
%TO.C,TP*%
X106426000Y-110740332D02*
X106426000Y-108540332D01*
X106896000Y-112710332D02*
X112096000Y-112710332D01*
X107496000Y-106470332D02*
X111896000Y-106470332D01*
X112666000Y-108540332D02*
X112666000Y-110740332D01*
X110960214Y-109590332D02*
G75*
G02*
X108131786Y-109590332I-1414214J0D01*
G01*
X108131786Y-109590332D02*
G75*
G02*
X110960214Y-109590332I1414214J0D01*
G01*
%TO.C,R3*%
X161574000Y-131239200D02*
X161574000Y-129039200D01*
X162044000Y-133209200D02*
X167244000Y-133209200D01*
X162644000Y-126969200D02*
X167044000Y-126969200D01*
X167814000Y-129039200D02*
X167814000Y-131239200D01*
X166108214Y-130089200D02*
G75*
G02*
X163279786Y-130089200I-1414214J0D01*
G01*
X163279786Y-130089200D02*
G75*
G02*
X166108214Y-130089200I1414214J0D01*
G01*
%TO.C,J1*%
X123194000Y-71448200D02*
X123694000Y-71948200D01*
X123194000Y-72448200D02*
X123194000Y-71448200D01*
X123694000Y-71948200D02*
X123194000Y-72448200D01*
X123889000Y-64538200D02*
X123889000Y-72148200D01*
X123889000Y-80508200D02*
X123889000Y-74948200D01*
X123934000Y-64538200D02*
X140574000Y-64538200D01*
X123934000Y-80508200D02*
X140619000Y-80508200D01*
X140619000Y-64538200D02*
X140619000Y-72148200D01*
X140619000Y-80508200D02*
X140619000Y-74948200D01*
%TO.C,PS*%
X106426000Y-96092000D02*
X106426000Y-93892000D01*
X106896000Y-98062000D02*
X112096000Y-98062000D01*
X107496000Y-91822000D02*
X111896000Y-91822000D01*
X112666000Y-93892000D02*
X112666000Y-96092000D01*
X110960214Y-94942000D02*
G75*
G02*
X108131786Y-94942000I-1414214J0D01*
G01*
X108131786Y-94942000D02*
G75*
G02*
X110960214Y-94942000I1414214J0D01*
G01*
%TO.C,U1*%
X147029000Y-64683200D02*
X147029000Y-64983200D01*
X147029000Y-64683200D02*
X168029000Y-64683200D01*
X147029000Y-67083200D02*
X147029000Y-67483200D01*
X147029000Y-67350200D02*
X150036000Y-67350200D01*
X147029000Y-69683200D02*
X147029000Y-70083200D01*
X147029000Y-72183200D02*
X147029000Y-72583200D01*
X147029000Y-74783200D02*
X147029000Y-75183200D01*
X147029000Y-77283200D02*
X147029000Y-77683200D01*
X147029000Y-79783200D02*
X147029000Y-80183200D01*
X147029000Y-82383200D02*
X147029000Y-82783200D01*
X147029000Y-84883200D02*
X147029000Y-85283200D01*
X147029000Y-87483200D02*
X147029000Y-87883200D01*
X147029000Y-89983200D02*
X147029000Y-90383200D01*
X147029000Y-92483200D02*
X147029000Y-92883200D01*
X147029000Y-95083200D02*
X147029000Y-95483200D01*
X147029000Y-97583200D02*
X147029000Y-97983200D01*
X147029000Y-100183200D02*
X147029000Y-100583200D01*
X147029000Y-102683200D02*
X147029000Y-103083200D01*
X147029000Y-105283200D02*
X147029000Y-105683200D01*
X147029000Y-107783200D02*
X147029000Y-108183200D01*
X147029000Y-110283200D02*
X147029000Y-110683200D01*
X147029000Y-112883200D02*
X147029000Y-113283200D01*
X150036000Y-67350200D02*
X150036000Y-64683200D01*
X153829000Y-115683200D02*
X147029000Y-115683200D01*
X156029000Y-115683200D02*
X156429000Y-115683200D01*
X158629000Y-115683200D02*
X159029000Y-115683200D01*
X168029000Y-64683200D02*
X168029000Y-64983200D01*
X168029000Y-67083200D02*
X168029000Y-67483200D01*
X168029000Y-69683200D02*
X168029000Y-70083200D01*
X168029000Y-72183200D02*
X168029000Y-72583200D01*
X168029000Y-74783200D02*
X168029000Y-75183200D01*
X168029000Y-77283200D02*
X168029000Y-77683200D01*
X168029000Y-79783200D02*
X168029000Y-80183200D01*
X168029000Y-82383200D02*
X168029000Y-82783200D01*
X168029000Y-84883200D02*
X168029000Y-85283200D01*
X168029000Y-87483200D02*
X168029000Y-87883200D01*
X168029000Y-89983200D02*
X168029000Y-90383200D01*
X168029000Y-92483200D02*
X168029000Y-92883200D01*
X168029000Y-95083200D02*
X168029000Y-95483200D01*
X168029000Y-97583200D02*
X168029000Y-97983200D01*
X168029000Y-100183200D02*
X168029000Y-100583200D01*
X168029000Y-102683200D02*
X168029000Y-103083200D01*
X168029000Y-105283200D02*
X168029000Y-105683200D01*
X168029000Y-107783200D02*
X168029000Y-108183200D01*
X168029000Y-110283200D02*
X168029000Y-110683200D01*
X168029000Y-112883200D02*
X168029000Y-113283200D01*
X168029000Y-115683200D02*
X161229000Y-115683200D01*
%TO.C,L3*%
X147244000Y-131239200D02*
X147244000Y-129039200D01*
X147714000Y-133209200D02*
X152914000Y-133209200D01*
X148314000Y-126969200D02*
X152714000Y-126969200D01*
X153484000Y-129039200D02*
X153484000Y-131239200D01*
X151778214Y-130089200D02*
G75*
G02*
X148949786Y-130089200I-1414214J0D01*
G01*
X148949786Y-130089200D02*
G75*
G02*
X151778214Y-130089200I1414214J0D01*
G01*
%TD*%
%LPC*%
D12*
%TO.C,MX15*%
X178086500Y-109537500D03*
D13*
X179356500Y-106997500D03*
D14*
X183166500Y-109537500D03*
D13*
X185706500Y-104457500D03*
D12*
X188246500Y-109537500D03*
%TD*%
%TO.C,MX3*%
X57158500Y-73732500D03*
D13*
X58428500Y-71192500D03*
D14*
X62238500Y-73732500D03*
D13*
X64778500Y-68652500D03*
D12*
X67318500Y-73732500D03*
%TD*%
%TO.C,MX4*%
X76208500Y-92782500D03*
D13*
X77478500Y-90242500D03*
D14*
X81288500Y-92782500D03*
D13*
X83828500Y-87702500D03*
D12*
X86368500Y-92782500D03*
%TD*%
D15*
%TO.C,J3*%
X117676000Y-73547500D03*
X101416000Y-73547500D03*
D16*
X113098000Y-74437500D03*
X112082000Y-72657500D03*
X111066000Y-74437500D03*
X110050000Y-72657500D03*
X109034000Y-74437500D03*
X108018000Y-72657500D03*
X107002000Y-74437500D03*
D17*
X105986000Y-72657500D03*
D18*
X115896000Y-70117500D03*
X103196000Y-70117500D03*
%TD*%
D12*
%TO.C,MX13*%
X220949000Y-83343750D03*
D13*
X222219000Y-80803750D03*
D14*
X226029000Y-83343750D03*
D13*
X228569000Y-78263750D03*
D12*
X231109000Y-83343750D03*
%TD*%
D19*
%TO.C,TP*%
X106296000Y-107340332D03*
D20*
X112796000Y-107340332D03*
X106296000Y-111840332D03*
X112796000Y-111840332D03*
%TD*%
D19*
%TO.C,R3*%
X161444000Y-127839200D03*
D20*
X167944000Y-127839200D03*
X161444000Y-132339200D03*
X167944000Y-132339200D03*
%TD*%
D12*
%TO.C,MX9*%
X178081234Y-88106250D03*
D13*
X179351234Y-85566250D03*
D14*
X183161234Y-88106250D03*
D13*
X185701234Y-83026250D03*
D12*
X188241234Y-88106250D03*
%TD*%
D18*
%TO.C,J1*%
X125904000Y-70108200D03*
X138604000Y-70108200D03*
D17*
X128694000Y-72648200D03*
D16*
X129710000Y-74428200D03*
X130726000Y-72648200D03*
X131742000Y-74428200D03*
X132758000Y-72648200D03*
X133774000Y-74428200D03*
X134790000Y-72648200D03*
X135806000Y-74428200D03*
D15*
X124124000Y-73538200D03*
X140384000Y-73538200D03*
%TD*%
D12*
%TO.C,MX1*%
X127174000Y-97593700D03*
D13*
X128444000Y-95053700D03*
D14*
X132254000Y-97593700D03*
D13*
X134794000Y-92513700D03*
D12*
X137334000Y-97593700D03*
%TD*%
D19*
%TO.C,PS*%
X106296000Y-92692000D03*
D20*
X112796000Y-92692000D03*
X106296000Y-97192000D03*
X112796000Y-97192000D03*
%TD*%
D12*
%TO.C,MX14*%
X242380250Y-88106250D03*
D13*
X243650250Y-85566250D03*
D14*
X247460250Y-88106250D03*
D13*
X250000250Y-83026250D03*
D12*
X252540250Y-88106250D03*
%TD*%
%TO.C,MX19*%
X104466000Y-130882500D03*
D13*
X105736000Y-128342500D03*
D14*
X109546000Y-130882500D03*
D13*
X112086000Y-125802500D03*
D12*
X114626000Y-130882500D03*
%TD*%
%TO.C,MX10*%
X199517750Y-83343750D03*
D13*
X200787750Y-80803750D03*
D14*
X204597750Y-83343750D03*
D13*
X207137750Y-78263750D03*
D12*
X209677750Y-83343750D03*
%TD*%
%TO.C,MX2*%
X38108500Y-73732500D03*
D13*
X39378500Y-71192500D03*
D14*
X43188500Y-73732500D03*
D13*
X45728500Y-68652500D03*
D12*
X48268500Y-73732500D03*
%TD*%
%TO.C,MX5*%
X127174000Y-120689500D03*
D13*
X128444000Y-118149500D03*
D14*
X132254000Y-120689500D03*
D13*
X134794000Y-115609500D03*
D12*
X137334000Y-120689500D03*
%TD*%
%TO.C,MX17*%
X220929000Y-104775000D03*
D13*
X222199000Y-102235000D03*
D14*
X226009000Y-104775000D03*
D13*
X228549000Y-99695000D03*
D12*
X231089000Y-104775000D03*
%TD*%
%TO.C,MX16*%
X199517750Y-104775000D03*
D13*
X200787750Y-102235000D03*
D14*
X204597750Y-104775000D03*
D13*
X207137750Y-99695000D03*
D12*
X209677750Y-104775000D03*
%TD*%
D21*
%TO.C,U1*%
X154804000Y-66183200D03*
D22*
X155104000Y-69213200D03*
X159954000Y-69213200D03*
D21*
X160254000Y-66183200D03*
D23*
X148639000Y-66053200D03*
D24*
X147739000Y-66053200D03*
D23*
X148639000Y-68593200D03*
D24*
X147739000Y-68593200D03*
D19*
X148639000Y-71133200D03*
D24*
X147739000Y-71133200D03*
D23*
X148639000Y-73673200D03*
D24*
X147739000Y-73673200D03*
D23*
X148639000Y-76213200D03*
D24*
X147739000Y-76213200D03*
D23*
X148639000Y-78753200D03*
D24*
X147739000Y-78753200D03*
D23*
X148639000Y-81293200D03*
D24*
X147739000Y-81293200D03*
D19*
X148639000Y-83833200D03*
D24*
X147739000Y-83833200D03*
D23*
X148639000Y-86373200D03*
D24*
X147739000Y-86373200D03*
D23*
X148639000Y-88913200D03*
D24*
X147739000Y-88913200D03*
D23*
X148639000Y-91453200D03*
D24*
X147739000Y-91453200D03*
D23*
X148639000Y-93993200D03*
D24*
X147739000Y-93993200D03*
D19*
X148639000Y-96533200D03*
D24*
X147739000Y-96533200D03*
D23*
X148639000Y-99073200D03*
D24*
X147739000Y-99073200D03*
D23*
X148639000Y-101613200D03*
D24*
X147739000Y-101613200D03*
D23*
X148639000Y-104153200D03*
D24*
X147739000Y-104153200D03*
D23*
X148639000Y-106693200D03*
D24*
X147739000Y-106693200D03*
D19*
X148639000Y-109233200D03*
D24*
X147739000Y-109233200D03*
D23*
X148639000Y-111773200D03*
D24*
X147739000Y-111773200D03*
D23*
X148639000Y-114313200D03*
D24*
X147739000Y-114313200D03*
D23*
X166419000Y-114313200D03*
D24*
X167319000Y-114313200D03*
D23*
X166419000Y-111773200D03*
D24*
X167319000Y-111773200D03*
D19*
X166419000Y-109233200D03*
D24*
X167319000Y-109233200D03*
D23*
X166419000Y-106693200D03*
D24*
X167319000Y-106693200D03*
D23*
X166419000Y-104153200D03*
D24*
X167319000Y-104153200D03*
D23*
X166419000Y-101613200D03*
D24*
X167319000Y-101613200D03*
D23*
X166419000Y-99073200D03*
D24*
X167319000Y-99073200D03*
D19*
X166419000Y-96533200D03*
D24*
X167319000Y-96533200D03*
D23*
X166419000Y-93993200D03*
D24*
X167319000Y-93993200D03*
D23*
X166419000Y-91453200D03*
D24*
X167319000Y-91453200D03*
D23*
X166419000Y-88913200D03*
D24*
X167319000Y-88913200D03*
D23*
X166419000Y-86373200D03*
D24*
X167319000Y-86373200D03*
D19*
X166419000Y-83833200D03*
D24*
X167319000Y-83833200D03*
D23*
X166419000Y-81293200D03*
D24*
X167319000Y-81293200D03*
D23*
X166419000Y-78753200D03*
D24*
X167319000Y-78753200D03*
D23*
X166419000Y-76213200D03*
D24*
X167319000Y-76213200D03*
D23*
X166419000Y-73673200D03*
D24*
X167319000Y-73673200D03*
D19*
X166419000Y-71133200D03*
D24*
X167319000Y-71133200D03*
D23*
X166419000Y-68593200D03*
D24*
X167319000Y-68593200D03*
D23*
X166419000Y-66053200D03*
D24*
X167319000Y-66053200D03*
D23*
X154989000Y-114083200D03*
D25*
X154989000Y-114983200D03*
D19*
X157529000Y-114083200D03*
D25*
X157529000Y-114983200D03*
D23*
X160069000Y-114083200D03*
D25*
X160069000Y-114983200D03*
%TD*%
D19*
%TO.C,L3*%
X147114000Y-127839200D03*
D20*
X153614000Y-127839200D03*
X147114000Y-132339200D03*
X153614000Y-132339200D03*
%TD*%
D12*
%TO.C,MX18*%
X242380250Y-109537500D03*
D13*
X243650250Y-106997500D03*
D14*
X247460250Y-109537500D03*
D13*
X250000250Y-104457500D03*
D12*
X252540250Y-109537500D03*
%TD*%
%LPD*%
M02*
