%TF.GenerationSoftware,KiCad,Pcbnew,8.0.0*%
%TF.CreationDate,2024-03-11T00:59:23-04:00*%
%TF.ProjectId,my-split,6d792d73-706c-4697-942e-6b696361645f,rev?*%
%TF.SameCoordinates,Original*%
%TF.FileFunction,Soldermask,Bot*%
%TF.FilePolarity,Negative*%
%FSLAX46Y46*%
G04 Gerber Fmt 4.6, Leading zero omitted, Abs format (unit mm)*
G04 Created by KiCad (PCBNEW 8.0.0) date 2024-03-11 00:59:23*
%MOMM*%
%LPD*%
G01*
G04 APERTURE LIST*
%ADD10C,1.750000*%
%ADD11C,3.000000*%
%ADD12C,3.987800*%
%ADD13R,2.550000X2.500000*%
%ADD14C,2.300000*%
%ADD15C,1.500000*%
%ADD16R,1.500000X1.500000*%
%ADD17C,3.250000*%
%ADD18R,1.700000X1.700000*%
%ADD19C,1.700000*%
%ADD20O,1.800000X1.800000*%
%ADD21O,1.500000X1.500000*%
%ADD22O,1.700000X1.700000*%
G04 APERTURE END LIST*
D10*
%TO.C,MX15*%
X178086500Y-109537500D03*
D11*
X179356500Y-106997500D03*
D12*
X183166500Y-109537500D03*
D11*
X185706500Y-104457500D03*
D10*
X188246500Y-109537500D03*
D13*
X176081500Y-106997500D03*
X189008500Y-104457500D03*
%TD*%
D10*
%TO.C,MX3*%
X57158500Y-73732500D03*
D11*
X58428500Y-71192500D03*
D12*
X62238500Y-73732500D03*
D11*
X64778500Y-68652500D03*
D10*
X67318500Y-73732500D03*
D13*
X55153500Y-71192500D03*
X68080500Y-68652500D03*
%TD*%
D10*
%TO.C,MX4*%
X76208500Y-92782500D03*
D11*
X77478500Y-90242500D03*
D12*
X81288500Y-92782500D03*
D11*
X83828500Y-87702500D03*
D10*
X86368500Y-92782500D03*
D13*
X74203500Y-90242500D03*
X87130500Y-87702500D03*
%TD*%
D14*
%TO.C,J3*%
X117676000Y-73547500D03*
X101416000Y-73547500D03*
D15*
X113098000Y-74437500D03*
X112082000Y-72657500D03*
X111066000Y-74437500D03*
X110050000Y-72657500D03*
X109034000Y-74437500D03*
X108018000Y-72657500D03*
X107002000Y-74437500D03*
D16*
X105986000Y-72657500D03*
D17*
X115896000Y-70117500D03*
X103196000Y-70117500D03*
%TD*%
D10*
%TO.C,MX13*%
X220949000Y-83343750D03*
D11*
X222219000Y-80803750D03*
D12*
X226029000Y-83343750D03*
D11*
X228569000Y-78263750D03*
D10*
X231109000Y-83343750D03*
D13*
X218944000Y-80803750D03*
X231871000Y-78263750D03*
%TD*%
D18*
%TO.C,TP*%
X106296000Y-107340332D03*
D19*
X112796000Y-107340332D03*
X106296000Y-111840332D03*
X112796000Y-111840332D03*
%TD*%
D18*
%TO.C,R3*%
X161444000Y-127839200D03*
D19*
X167944000Y-127839200D03*
X161444000Y-132339200D03*
X167944000Y-132339200D03*
%TD*%
D10*
%TO.C,MX9*%
X178081234Y-88106250D03*
D11*
X179351234Y-85566250D03*
D12*
X183161234Y-88106250D03*
D11*
X185701234Y-83026250D03*
D10*
X188241234Y-88106250D03*
D13*
X176076234Y-85566250D03*
X189003234Y-83026250D03*
%TD*%
D17*
%TO.C,J1*%
X125904000Y-70108200D03*
X138604000Y-70108200D03*
D16*
X128694000Y-72648200D03*
D15*
X129710000Y-74428200D03*
X130726000Y-72648200D03*
X131742000Y-74428200D03*
X132758000Y-72648200D03*
X133774000Y-74428200D03*
X134790000Y-72648200D03*
X135806000Y-74428200D03*
D14*
X124124000Y-73538200D03*
X140384000Y-73538200D03*
%TD*%
D10*
%TO.C,MX1*%
X127174000Y-97593700D03*
D11*
X128444000Y-95053700D03*
D12*
X132254000Y-97593700D03*
D11*
X134794000Y-92513700D03*
D10*
X137334000Y-97593700D03*
D13*
X125169000Y-95053700D03*
X138096000Y-92513700D03*
%TD*%
D18*
%TO.C,PS*%
X106296000Y-92692000D03*
D19*
X112796000Y-92692000D03*
X106296000Y-97192000D03*
X112796000Y-97192000D03*
%TD*%
D10*
%TO.C,MX14*%
X242380250Y-88106250D03*
D11*
X243650250Y-85566250D03*
D12*
X247460250Y-88106250D03*
D11*
X250000250Y-83026250D03*
D10*
X252540250Y-88106250D03*
D13*
X240375250Y-85566250D03*
X253302250Y-83026250D03*
%TD*%
D10*
%TO.C,MX19*%
X104466000Y-130882500D03*
D11*
X105736000Y-128342500D03*
D12*
X109546000Y-130882500D03*
D11*
X112086000Y-125802500D03*
D10*
X114626000Y-130882500D03*
D13*
X102461000Y-128342500D03*
X115388000Y-125802500D03*
%TD*%
D10*
%TO.C,MX10*%
X199517750Y-83343750D03*
D11*
X200787750Y-80803750D03*
D12*
X204597750Y-83343750D03*
D11*
X207137750Y-78263750D03*
D10*
X209677750Y-83343750D03*
D13*
X197512750Y-80803750D03*
X210439750Y-78263750D03*
%TD*%
D10*
%TO.C,MX2*%
X38108500Y-73732500D03*
D11*
X39378500Y-71192500D03*
D12*
X43188500Y-73732500D03*
D11*
X45728500Y-68652500D03*
D10*
X48268500Y-73732500D03*
D13*
X36103500Y-71192500D03*
X49030500Y-68652500D03*
%TD*%
D10*
%TO.C,MX5*%
X127174000Y-120689500D03*
D11*
X128444000Y-118149500D03*
D12*
X132254000Y-120689500D03*
D11*
X134794000Y-115609500D03*
D10*
X137334000Y-120689500D03*
D13*
X125169000Y-118149500D03*
X138096000Y-115609500D03*
%TD*%
D10*
%TO.C,MX17*%
X220929000Y-104775000D03*
D11*
X222199000Y-102235000D03*
D12*
X226009000Y-104775000D03*
D11*
X228549000Y-99695000D03*
D10*
X231089000Y-104775000D03*
D13*
X218924000Y-102235000D03*
X231851000Y-99695000D03*
%TD*%
D10*
%TO.C,MX16*%
X199517750Y-104775000D03*
D11*
X200787750Y-102235000D03*
D12*
X204597750Y-104775000D03*
D11*
X207137750Y-99695000D03*
D10*
X209677750Y-104775000D03*
D13*
X197512750Y-102235000D03*
X210439750Y-99695000D03*
%TD*%
D20*
%TO.C,U1*%
X154804000Y-66183200D03*
D21*
X155104000Y-69213200D03*
X159954000Y-69213200D03*
D20*
X160254000Y-66183200D03*
D22*
X148639000Y-66053200D03*
X148639000Y-68593200D03*
D18*
X148639000Y-71133200D03*
D22*
X148639000Y-73673200D03*
X148639000Y-76213200D03*
X148639000Y-78753200D03*
X148639000Y-81293200D03*
D18*
X148639000Y-83833200D03*
D22*
X148639000Y-86373200D03*
X148639000Y-88913200D03*
X148639000Y-91453200D03*
X148639000Y-93993200D03*
D18*
X148639000Y-96533200D03*
D22*
X148639000Y-99073200D03*
X148639000Y-101613200D03*
X148639000Y-104153200D03*
X148639000Y-106693200D03*
D18*
X148639000Y-109233200D03*
D22*
X148639000Y-111773200D03*
X148639000Y-114313200D03*
X166419000Y-114313200D03*
X166419000Y-111773200D03*
D18*
X166419000Y-109233200D03*
D22*
X166419000Y-106693200D03*
X166419000Y-104153200D03*
X166419000Y-101613200D03*
X166419000Y-99073200D03*
D18*
X166419000Y-96533200D03*
D22*
X166419000Y-93993200D03*
X166419000Y-91453200D03*
X166419000Y-88913200D03*
X166419000Y-86373200D03*
D18*
X166419000Y-83833200D03*
D22*
X166419000Y-81293200D03*
X166419000Y-78753200D03*
X166419000Y-76213200D03*
X166419000Y-73673200D03*
D18*
X166419000Y-71133200D03*
D22*
X166419000Y-68593200D03*
X166419000Y-66053200D03*
X154989000Y-114083200D03*
D18*
X157529000Y-114083200D03*
D22*
X160069000Y-114083200D03*
%TD*%
D18*
%TO.C,L3*%
X147114000Y-127839200D03*
D19*
X153614000Y-127839200D03*
X147114000Y-132339200D03*
X153614000Y-132339200D03*
%TD*%
D10*
%TO.C,MX18*%
X242380250Y-109537500D03*
D11*
X243650250Y-106997500D03*
D12*
X247460250Y-109537500D03*
D11*
X250000250Y-104457500D03*
D10*
X252540250Y-109537500D03*
D13*
X240375250Y-106997500D03*
X253302250Y-104457500D03*
%TD*%
M02*
