%TF.GenerationSoftware,KiCad,Pcbnew,8.0.0*%
%TF.CreationDate,2024-03-11T00:59:23-04:00*%
%TF.ProjectId,my-split,6d792d73-706c-4697-942e-6b696361645f,rev?*%
%TF.SameCoordinates,Original*%
%TF.FileFunction,Other,Comment*%
%FSLAX46Y46*%
G04 Gerber Fmt 4.6, Leading zero omitted, Abs format (unit mm)*
G04 Created by KiCad (PCBNEW 8.0.0) date 2024-03-11 00:59:23*
%MOMM*%
%LPD*%
G01*
G04 APERTURE LIST*
%ADD10C,0.150000*%
G04 APERTURE END LIST*
D10*
X119135922Y-141454819D02*
X119469255Y-142454819D01*
X119469255Y-142454819D02*
X119802588Y-141454819D01*
X120135922Y-142073866D02*
X120897827Y-142073866D01*
X121945445Y-142359580D02*
X121897826Y-142407200D01*
X121897826Y-142407200D02*
X121754969Y-142454819D01*
X121754969Y-142454819D02*
X121659731Y-142454819D01*
X121659731Y-142454819D02*
X121516874Y-142407200D01*
X121516874Y-142407200D02*
X121421636Y-142311961D01*
X121421636Y-142311961D02*
X121374017Y-142216723D01*
X121374017Y-142216723D02*
X121326398Y-142026247D01*
X121326398Y-142026247D02*
X121326398Y-141883390D01*
X121326398Y-141883390D02*
X121374017Y-141692914D01*
X121374017Y-141692914D02*
X121421636Y-141597676D01*
X121421636Y-141597676D02*
X121516874Y-141502438D01*
X121516874Y-141502438D02*
X121659731Y-141454819D01*
X121659731Y-141454819D02*
X121754969Y-141454819D01*
X121754969Y-141454819D02*
X121897826Y-141502438D01*
X121897826Y-141502438D02*
X121945445Y-141550057D01*
X122802588Y-141788152D02*
X122802588Y-142454819D01*
X122374017Y-141788152D02*
X122374017Y-142311961D01*
X122374017Y-142311961D02*
X122421636Y-142407200D01*
X122421636Y-142407200D02*
X122516874Y-142454819D01*
X122516874Y-142454819D02*
X122659731Y-142454819D01*
X122659731Y-142454819D02*
X122754969Y-142407200D01*
X122754969Y-142407200D02*
X122802588Y-142359580D01*
X123135922Y-141788152D02*
X123516874Y-141788152D01*
X123278779Y-141454819D02*
X123278779Y-142311961D01*
X123278779Y-142311961D02*
X123326398Y-142407200D01*
X123326398Y-142407200D02*
X123421636Y-142454819D01*
X123421636Y-142454819D02*
X123516874Y-142454819D01*
M02*
