M48
; DRILL file {KiCad 8.0.0} date 2024-03-10T17:47:17-0400
; FORMAT={-:-/ absolute / inch / decimal}
; #@! TF.CreationDate,2024-03-10T17:47:17-04:00
; #@! TF.GenerationSoftware,Kicad,Pcbnew,8.0.0
; #@! TF.FileFunction,NonPlated,1,2,NPTH
FMAT,2
INCH
; #@! TA.AperFunction,NonPlated,NPTH,ComponentDrill
T1C0.0591
; #@! TA.AperFunction,NonPlated,NPTH,ComponentDrill
T2C0.0689
; #@! TA.AperFunction,NonPlated,NPTH,ComponentDrill
T3C0.0709
; #@! TA.AperFunction,NonPlated,NPTH,ComponentDrill
T4C0.1181
; #@! TA.AperFunction,NonPlated,NPTH,ComponentDrill
T5C0.1280
; #@! TA.AperFunction,NonPlated,NPTH,ComponentDrill
T6C0.1570
%
G90
G05
T1
X6.1065Y-2.7249
X6.2974Y-2.7249
T2
X1.5003Y-2.9029
X1.9003Y-2.9029
X2.2503Y-2.9029
X2.6503Y-2.9029
X3.0003Y-3.6529
X3.4003Y-3.6529
X4.1128Y-5.1529
X4.5128Y-5.1529
X5.0069Y-3.8423
X5.0069Y-4.7516
X5.4069Y-3.8423
X5.4069Y-4.7516
X7.0111Y-3.4688
X7.0113Y-4.3125
X7.4111Y-3.4688
X7.4113Y-4.3125
X7.855Y-3.2812
X7.855Y-4.125
X8.255Y-3.2812
X8.255Y-4.125
X8.698Y-4.125
X8.6988Y-3.2812
X9.098Y-4.125
X9.0988Y-3.2812
X9.5425Y-3.4688
X9.5425Y-4.3125
X9.9425Y-3.4688
X9.9425Y-4.3125
T3
X6.0946Y-2.6056
X6.3092Y-2.6056
T4
X1.5503Y-2.8029
X1.8003Y-2.7029
X2.3003Y-2.8029
X2.5503Y-2.7029
X3.0503Y-3.5529
X3.3003Y-3.4529
X4.1628Y-5.0529
X4.4128Y-4.9529
X5.0569Y-3.7423
X5.0569Y-4.6516
X5.3069Y-3.6423
X5.3069Y-4.5516
X7.0611Y-3.3687
X7.0613Y-4.2125
X7.3111Y-3.2687
X7.3113Y-4.1125
X7.905Y-3.1812
X7.905Y-4.025
X8.155Y-3.0812
X8.155Y-3.925
X8.748Y-4.025
X8.7488Y-3.1812
X8.998Y-3.925
X8.9988Y-3.0812
X9.5925Y-3.3687
X9.5925Y-4.2125
X9.8425Y-3.2687
X9.8425Y-4.1125
T5
X4.0628Y-2.7605
X4.5628Y-2.7605
X4.9569Y-2.7602
X5.4569Y-2.7602
T6
X1.7003Y-2.9029
X2.4503Y-2.9029
X3.2003Y-3.6529
X4.3128Y-5.1529
X5.2069Y-3.8423
X5.2069Y-4.7516
X7.2111Y-3.4688
X7.2113Y-4.3125
X8.055Y-3.2812
X8.055Y-4.125
X8.898Y-4.125
X8.8988Y-3.2812
X9.7425Y-3.4688
X9.7425Y-4.3125
M30
