M48
; DRILL file {KiCad 8.0.0} date 2024-03-11T00:59:36-0400
; FORMAT={-:-/ absolute / metric / decimal}
; #@! TF.CreationDate,2024-03-11T00:59:36-04:00
; #@! TF.GenerationSoftware,Kicad,Pcbnew,8.0.0
; #@! TF.FileFunction,Plated,1,2,PTH
FMAT,2
METRIC
; #@! TA.AperFunction,Plated,PTH,ViaDrill
T1C0.400
; #@! TA.AperFunction,Plated,PTH,ComponentDrill
T2C0.890
; #@! TA.AperFunction,Plated,PTH,ComponentDrill
T3C1.000
; #@! TA.AperFunction,Plated,PTH,ComponentDrill
T4C1.020
; #@! TA.AperFunction,Plated,PTH,ComponentDrill
T5C1.570
%
G90
G05
T1
X38.426Y-78.495
X57.349Y-65.795
X78.177Y-80.4
X92.846Y-87.703
T2
X105.986Y-72.657
X107.002Y-74.438
X108.018Y-72.657
X109.034Y-74.438
X110.05Y-72.657
X111.066Y-74.438
X112.082Y-72.657
X113.098Y-74.438
X128.694Y-72.648
X129.71Y-74.428
X130.726Y-72.648
X131.742Y-74.428
X132.758Y-72.648
X133.774Y-74.428
X134.79Y-72.648
X135.806Y-74.428
T3
X106.296Y-92.692
X106.296Y-97.192
X106.296Y-107.34
X106.296Y-111.84
X112.796Y-92.692
X112.796Y-97.192
X112.796Y-107.34
X112.796Y-111.84
X147.114Y-127.839
X147.114Y-132.339
X153.614Y-127.839
X153.614Y-132.339
X161.444Y-127.839
X161.444Y-132.339
X167.944Y-127.839
X167.944Y-132.339
T4
X148.639Y-66.053
X148.639Y-68.593
X148.639Y-71.133
X148.639Y-73.673
X148.639Y-76.213
X148.639Y-78.753
X148.639Y-81.293
X148.639Y-83.833
X148.639Y-86.373
X148.639Y-88.913
X148.639Y-91.453
X148.639Y-93.993
X148.639Y-96.533
X148.639Y-99.073
X148.639Y-101.613
X148.639Y-104.153
X148.639Y-106.693
X148.639Y-109.233
X148.639Y-111.773
X148.639Y-114.313
X154.989Y-114.083
X157.529Y-114.083
X160.069Y-114.083
X166.419Y-66.053
X166.419Y-68.593
X166.419Y-71.133
X166.419Y-73.673
X166.419Y-76.213
X166.419Y-78.753
X166.419Y-81.293
X166.419Y-83.833
X166.419Y-86.373
X166.419Y-88.913
X166.419Y-91.453
X166.419Y-93.993
X166.419Y-96.533
X166.419Y-99.073
X166.419Y-101.613
X166.419Y-104.153
X166.419Y-106.693
X166.419Y-109.233
X166.419Y-111.773
X166.419Y-114.313
T5
X101.416Y-73.547
X117.676Y-73.547
X124.124Y-73.538
X140.384Y-73.538
M30
